<svg width="32" height="32" viewBox="0 0 32 32" fill="none" xmlns="http://www.w3.org/2000/svg">
<path d="M15.7002 30.7C23.9845 30.7 30.7002 23.9843 30.7002 15.7C30.7002 7.41573 23.9845 0.699997 15.7002 0.699997C7.41592 0.699997 0.700195 7.41573 0.700195 15.7C0.700195 23.9843 7.41592 30.7 15.7002 30.7Z" fill="#4C9A84"/>
<path d="M15.7002 17.2C18.1855 17.2 20.2002 15.1853 20.2002 12.7C20.2002 10.2147 18.1855 8.2 15.7002 8.2C13.2149 8.2 11.2002 10.2147 11.2002 12.7C11.2002 15.1853 13.2149 17.2 15.7002 17.2Z" fill="#4C9A84"/>
<path d="M8.2002 28.693V26.2C8.2002 25.4043 8.51627 24.6413 9.07887 24.0787C9.64148 23.5161 10.4045 23.2 11.2002 23.2H20.2002C20.9958 23.2 21.7589 23.5161 22.3215 24.0787C22.8841 24.6413 23.2002 25.4043 23.2002 26.2V28.693" fill="#4C9A84"/>
<path d="M8.2002 28.693V26.2C8.2002 25.4043 8.51627 24.6413 9.07887 24.0787C9.64148 23.5161 10.4045 23.2 11.2002 23.2H20.2002C20.9958 23.2 21.7589 23.5161 22.3215 24.0787C22.8841 24.6413 23.2002 25.4043 23.2002 26.2V28.693M30.7002 15.7C30.7002 23.9843 23.9845 30.7 15.7002 30.7C7.41592 30.7 0.700195 23.9843 0.700195 15.7C0.700195 7.41573 7.41592 0.699997 15.7002 0.699997C23.9845 0.699997 30.7002 7.41573 30.7002 15.7ZM20.2002 12.7C20.2002 15.1853 18.1855 17.2 15.7002 17.2C13.2149 17.2 11.2002 15.1853 11.2002 12.7C11.2002 10.2147 13.2149 8.2 15.7002 8.2C18.1855 8.2 20.2002 10.2147 20.2002 12.7Z" stroke="white" stroke-width="1.4" stroke-linecap="round" stroke-linejoin="round"/>
</svg>
