<svg width="22" height="22" viewBox="0 0 22 22" fill="none" xmlns="http://www.w3.org/2000/svg">
<path d="M5.7002 19.362V17.7C5.7002 17.1696 5.91091 16.6609 6.28598 16.2858C6.66105 15.9107 7.16976 15.7 7.7002 15.7H13.7002C14.2306 15.7 14.7393 15.9107 15.1144 16.2858C15.4895 16.6609 15.7002 17.1696 15.7002 17.7V19.362M20.7002 10.7C20.7002 16.2228 16.223 20.7 10.7002 20.7C5.17735 20.7 0.700195 16.2228 0.700195 10.7C0.700195 5.17715 5.17735 0.699997 10.7002 0.699997C16.223 0.699997 20.7002 5.17715 20.7002 10.7ZM13.7002 8.7C13.7002 10.3569 12.357 11.7 10.7002 11.7C9.04334 11.7 7.7002 10.3569 7.7002 8.7C7.7002 7.04314 9.04334 5.7 10.7002 5.7C12.357 5.7 13.7002 7.04314 13.7002 8.7Z" stroke="black" stroke-width="1.4" stroke-linecap="round" stroke-linejoin="round"/>
</svg>
