<svg width="78" height="79" viewBox="0 0 78 79" fill="none" xmlns="http://www.w3.org/2000/svg">
<g clip-path="url(#clip0_729_11379)">
<path d="M0 41.68L8.76 41.33C8.68 42.04 8.88 42.92 8.76 43.59C8.7 44 1.3 44.92 0.86 44.87C0.08 44.79 0.42 44.2 0 43.78V41.68Z" fill="#FF6857"/>
<path d="M36.35 17.26C51.11 15.58 62.08 29.11 57.45 43.26C55.79 48.32 52.17 52.79 50.38 57.55C47.77 64.47 52.21 71.55 45.3 76.64C44.0429 77.5773 42.5943 78.2252 41.0576 78.5373C39.5209 78.8494 37.9343 78.818 36.4112 78.4453C34.8881 78.0726 33.4662 77.368 32.2472 76.3816C31.0282 75.3953 30.0423 74.1518 29.36 72.74C27.58 68.96 28.71 65.43 28.36 61.45C27.73 53.45 20.05 47.03 19.24 38.69C18.24 28.38 25.96 18.43 36.32 17.25M45.85 59.53C48.16 49.14 58.25 42 53.4 30.49C47.9 17.4 28.74 18.12 24 31.53C20.74 40.74 26.82 46.15 30.18 53.7C30.66 54.77 31.79 58.86 32.04 59.2C32.29 59.54 37.14 60.09 37.13 58.67V44C36.99 43.21 35.73 42.95 35.47 41.82C34.04 35.64 43.4 35.59 41.95 41.82C41.79 42.51 40.95 43.21 40.95 43.29V59.55L45.85 59.53ZM45.85 63.38H32.22V65.48H45.88L45.85 63.38ZM45.5 70.03H32.5C34.5 76.59 43.1 76.27 45.5 70.03Z" fill="#FF6857"/>
<path d="M11 11.92L17.15 18C16.62 18.41 15.94 19.58 15.29 19.53C14.87 19.53 8.76 14.53 8.76 14.15L11 11.92Z" fill="#FF6857"/>
<path d="M24.51 2.8L27.64 10.69C27.64 11.02 25.64 11.87 25.38 11.83C24.79 11.74 22.13 5.28 21.38 4.37L24.51 2.8Z" fill="#FF6857"/>
<path d="M62 19.62C62.18 18.91 60.6 17.89 60.6 17.69C60.6 17.26 66.29 11.57 66.72 11.57C66.96 11.57 68.88 13.57 68.49 14.35C68 15.35 63.11 18.56 62 19.61" fill="#FF6857"/>
<path d="M77.75 41.33V44.49L69 43.43C69.1938 42.633 69.311 41.8193 69.35 41C69.77 40.55 76.55 41.52 77.75 41.34" fill="#FF6857"/>
<path d="M40.28 0C40.28 1.14 40.28 8.37 39.93 8.76C39.82 8.87 37.93 8.68 37.48 8.76L37.12 0H40.28Z" fill="#FF6857"/>
<path d="M10.15 28.39C10.1409 29.2068 10.0164 30.0181 9.78 30.8C9.38 31.14 1.78 29.11 1.55 28.74C1.32 28.37 2 26.07 2.13 26C2.9 25.45 8.69 28.57 10.13 28.43" fill="#FF6857"/>
<path d="M56 3.86C55.5 4.86 52.81 11.29 52.47 11.54C52.13 11.79 50.65 10.88 50.05 10.84L52.85 2.84L56 3.86Z" fill="#FF6857"/>
<path d="M76.34 28.35C74.88 28.46 69.34 30.86 68.46 30.77C68.04 30.77 66.96 28.77 68.39 27.94C70.27 26.87 73.5 26.38 75.48 25.22L76.34 28.35Z" fill="#FF6857"/>
</g>
<defs>
<clipPath id="clip0_729_11379">
<rect width="77.75" height="78.75" fill="white"/>
</clipPath>
</defs>
</svg>
