<svg width="165" height="50" viewBox="0 0 165 50" fill="none" xmlns="http://www.w3.org/2000/svg">
<path d="M96.3796 13.2009C97.9106 10.7318 100.213 10.4668 102.648 10.6234C104.71 10.7558 106.205 11.7676 106.988 13.7309C107.001 13.767 107.037 13.8032 107.061 13.8393C107.145 13.8634 107.157 13.7911 107.169 13.7429C108.17 11.8519 109.822 10.9606 111.859 10.6715C112.908 10.515 113.944 10.527 114.981 10.7679C117.055 11.2617 118.128 12.7191 118.658 14.6704C119.008 15.9592 119.092 17.272 119.092 18.5969C119.092 21.0541 119.092 23.5112 119.104 25.9562C119.104 26.2935 119.032 26.4139 118.67 26.4019C117.814 26.3778 116.958 26.3778 116.102 26.4019C115.729 26.4139 115.608 26.3296 115.608 25.9322C115.632 23.3425 115.62 20.765 115.608 18.1754C115.608 17.4888 115.524 16.8143 115.343 16.1519C114.812 14.1163 113.378 13.3214 111.413 13.5863C109.4 13.8513 108.134 15.2606 107.832 17.4045C107.772 17.8622 107.736 18.332 107.736 18.7897C107.736 21.1745 107.736 23.5594 107.748 25.9322C107.748 26.2815 107.676 26.4139 107.302 26.4019C106.434 26.3778 105.554 26.3778 104.686 26.4019C104.348 26.4139 104.252 26.3055 104.252 25.9683C104.264 23.3787 104.252 20.8011 104.252 18.2115C104.252 17.5129 104.167 16.8264 103.987 16.1398C103.48 14.2127 102.01 13.2611 100.044 13.5743C98.0794 13.8875 96.8256 15.2003 96.4881 17.26C96.4037 17.7779 96.3796 18.2958 96.3796 18.8258C96.3796 21.1986 96.3675 23.5594 96.3916 25.9322C96.3916 26.2815 96.3193 26.4139 95.9456 26.4019C95.1017 26.3778 94.2578 26.3778 93.4139 26.4019C93.0281 26.4139 92.9076 26.3176 92.9076 25.9081C92.9196 22.0899 92.9196 18.2717 92.9196 14.4536C92.9196 13.3816 92.9317 12.3096 92.9196 11.2256C92.9196 10.9245 92.9679 10.792 93.3175 10.804C94.1734 10.8281 95.0294 10.8281 95.8853 10.804C96.1746 10.804 96.259 10.8883 96.2711 11.1654C96.2711 11.8037 96.3314 12.4421 96.3796 13.2009Z" fill="#FF6857"/>
<path d="M85.3494 23.3908C83.5169 25.9322 80.925 26.2213 78.2246 25.8238C75.4518 25.4143 73.5591 23.6919 72.6308 21.0903C71.5458 18.0309 71.8592 15.092 73.969 12.5144C75.6206 10.4909 77.8508 9.74417 80.4187 9.97301C81.1179 10.0332 81.8051 10.1657 82.4561 10.4066C83.6013 10.8161 84.5899 11.4425 85.3494 12.6108C85.3856 11.9002 85.4579 11.31 85.4458 10.7077C85.4458 10.2621 85.5784 10.1296 86.0245 10.1537C86.7719 10.1898 87.5314 10.1898 88.2909 10.1537C88.7008 10.1296 88.8334 10.25 88.8334 10.6716C88.8093 13.9839 88.8214 17.2962 88.8214 20.6085C88.8214 22.1502 88.8093 23.6919 88.8334 25.2216C88.8455 25.6552 88.7008 25.7516 88.2909 25.7395C87.4832 25.7034 86.6634 25.7154 85.8437 25.7395C85.5543 25.7395 85.4699 25.6432 85.4579 25.3661C85.4338 24.7278 85.3856 24.0773 85.3494 23.3908ZM80.4428 12.8999C77.6821 12.8878 75.5482 15.08 75.5241 17.9346C75.5 20.7651 77.658 22.9933 80.4066 23.0054C83.1914 23.0174 85.3494 20.8012 85.3494 17.9466C85.3494 15.1161 83.1914 12.8999 80.4428 12.8999Z" fill="#FF6857"/>
<path d="M135.199 13.2371C135.741 12.406 136.344 11.8279 137.104 11.3822C139.141 10.2019 142.589 10.3103 144.325 11.6352C145.543 12.5626 146.073 13.8755 146.399 15.3088C146.652 16.441 146.7 17.5852 146.712 18.7295C146.724 21.1264 146.712 23.5233 146.724 25.9202C146.724 26.3176 146.603 26.414 146.23 26.402C145.386 26.3779 144.542 26.3779 143.698 26.402C143.336 26.414 143.228 26.3176 143.24 25.9443C143.252 23.5353 143.252 21.1264 143.252 18.7174C143.252 17.9586 143.204 17.2119 143.047 16.4651C142.685 14.7788 141.805 13.8393 140.395 13.6105C138.514 13.2973 136.887 13.9718 136.007 15.4052C135.488 16.2603 135.235 17.1878 135.235 18.1754C135.211 20.741 135.211 23.3185 135.223 25.884C135.223 26.2936 135.115 26.402 134.717 26.3899C133.849 26.3658 132.969 26.3658 132.101 26.3899C131.811 26.3899 131.739 26.3056 131.739 26.0165C131.751 21.0662 131.751 16.1158 131.739 11.1654C131.739 10.8884 131.799 10.792 132.101 10.792C132.969 10.8161 133.849 10.8161 134.717 10.792C135.018 10.78 135.078 10.9004 135.09 11.1654C135.09 11.8279 135.139 12.4663 135.199 13.2371Z" fill="#FF6857"/>
<path d="M165 22.5356C164.12 24.1134 162.842 25.1734 161.227 25.8479C157.935 27.221 153.957 26.4862 151.546 23.9809C149.774 22.1381 149.171 19.8857 149.497 17.3925C150.111 12.6951 154.427 10.1777 158.683 10.6113C160.937 10.8402 162.842 11.7435 164.301 13.5021C164.554 13.8152 164.795 14.1525 164.988 14.5499C163.999 14.9595 163.023 15.3569 162.046 15.7665C161.829 15.8628 161.769 15.6821 161.685 15.5617C160.732 14.0922 159.358 13.4177 157.634 13.4418C154.753 13.49 152.571 16.0435 152.884 19.0065C153.186 21.8731 155.331 23.7882 158.104 23.6196C159.623 23.5232 160.829 22.8487 161.649 21.5599C161.793 21.3311 161.914 21.2468 162.191 21.3672C163.119 21.7768 164.06 22.1501 165 22.5356Z" fill="#FF6857"/>
<path d="M123.229 18.5609C123.229 16.0917 123.229 13.6226 123.217 11.1534C123.217 10.8282 123.289 10.7319 123.627 10.7439C124.531 10.768 125.423 10.768 126.327 10.7439C126.64 10.7319 126.713 10.8403 126.713 11.1414C126.701 16.0917 126.701 21.0421 126.713 25.9925C126.713 26.2816 126.628 26.3659 126.351 26.3538C125.435 26.3418 124.519 26.3297 123.602 26.3538C123.289 26.3659 123.217 26.2575 123.217 25.9684C123.229 23.4992 123.229 21.0301 123.229 18.5609Z" fill="#FF6857"/>
<path d="M124.626 4.36023C125.772 4.36023 126.712 5.28767 126.724 6.41987C126.736 7.55207 125.808 8.5036 124.662 8.51565C123.505 8.53974 122.541 7.58821 122.541 6.43192C122.553 5.29972 123.481 4.37227 124.626 4.36023Z" fill="#FF6857"/>
<path d="M61.829 26.0527C60.4547 26.0527 59.1406 25.872 57.9109 25.5227C56.6813 25.1734 55.6807 24.7398 54.9332 24.2339L56.3919 21.3432C57.1273 21.813 57.9953 22.1864 59.008 22.4875C60.0207 22.7765 61.0454 22.9331 62.0822 22.9331C63.2515 22.9331 64.1075 22.7765 64.65 22.4634C65.1925 22.1502 65.4577 21.7166 65.4577 21.1746C65.4577 20.7289 65.2769 20.3917 64.9152 20.1628C64.5535 19.934 64.0713 19.7533 63.4927 19.6329C62.9019 19.5124 62.2509 19.404 61.5276 19.2956C60.8043 19.1993 60.093 19.0547 59.3697 18.8861C58.6463 18.7175 57.9953 18.4645 57.4046 18.1273C56.8139 17.79 56.3437 17.3444 55.9821 16.7783C55.6204 16.2122 55.4396 15.4534 55.4396 14.5018C55.4396 13.4901 55.7289 12.6108 56.3196 11.84C56.9103 11.0812 57.7301 10.491 58.791 10.0694C59.8519 9.64784 61.1177 9.43103 62.5764 9.43103C63.6494 9.43103 64.7464 9.56352 65.8796 9.81646C67.0008 10.0694 67.9411 10.4187 68.6886 10.8643L67.1937 13.743C66.4463 13.2974 65.6747 12.9842 64.879 12.8156C64.0834 12.647 63.3118 12.5626 62.5403 12.5626C61.407 12.5626 60.5511 12.7313 59.9845 13.0685C59.4179 13.4058 59.1286 13.8273 59.1286 14.3573C59.1286 14.8391 59.3094 15.2125 59.6711 15.4534C60.0327 15.6943 60.5149 15.887 61.0936 16.0195C61.6843 16.152 62.3353 16.2724 63.0587 16.3808C63.782 16.4892 64.4933 16.6338 65.2045 16.8024C65.9158 16.971 66.5668 17.2119 67.1696 17.5371C67.7724 17.8503 68.2425 18.2959 68.6163 18.862C68.9779 19.4281 69.1588 20.1628 69.1588 21.0782C69.1588 22.1141 68.8574 22.9933 68.2666 23.7401C67.6639 24.4748 66.832 25.053 65.747 25.4746C64.65 25.8479 63.348 26.0527 61.829 26.0527Z" fill="#FF6857"/>
<path d="M43.2153 47.3717C43.8302 46.6972 44.3365 45.8782 44.7343 44.9387C45.3733 43.397 45.6506 41.506 45.4938 39.7715C45.2648 37.3385 44.0351 34.9537 42.0942 33.2313C41.0454 32.2918 39.8519 31.5932 38.5499 31.1355C37.8386 30.8946 37.1032 30.7139 36.3557 30.6296C34.3304 30.3646 32.2328 30.6296 30.2798 31.4246L30.0748 31.5089L29.906 31.3523C27.2177 28.8952 24.4328 27.4257 21.3707 26.8355C20.3098 26.6308 19.2369 26.5465 18.176 26.5826C14.8246 26.691 11.7022 27.9677 9.38752 30.184C9.13436 30.4249 8.89325 30.6657 8.67625 30.9187C7.85647 31.8461 7.16931 32.894 6.62681 34.0623L6.55447 34.2189L6.3857 34.2551C6.10842 34.3273 5.86731 34.3996 5.65031 34.4719C4.84259 34.7489 4.08309 35.1464 3.40798 35.6643C1.46704 37.0856 0.237374 39.2054 0.0324302 41.4819C-0.0881251 42.8911 0.128875 44.3726 0.659318 45.6614C0.864263 46.1552 1.11743 46.6009 1.39471 46.9983C2.10598 48.0221 3.05837 48.7569 4.15542 49.1423L4.57737 49.2868H40.1653L40.5872 49.1423C41.5758 48.793 42.4679 48.1908 43.2153 47.3717ZM39.9001 42.9513C39.7554 43.3006 39.5625 43.6138 39.3576 43.8547C39.3214 43.8908 39.2732 43.939 39.225 43.9872L39.1285 44.0715H5.68647L5.59003 43.8788C5.55386 43.8185 5.5177 43.7463 5.49359 43.674C5.28864 43.1922 5.1922 42.5177 5.24042 41.9516C5.33686 40.8676 6.22897 39.8197 7.41042 39.4102C7.49481 39.3861 7.61536 39.35 7.74797 39.3138L7.86853 39.2897C8.08553 39.2416 8.30252 39.2295 8.50747 39.2295L10.4243 39.2054L10.9668 37.3626C11.3044 36.2424 11.8589 35.2186 12.5943 34.3996C13.9807 32.8338 16.0783 31.8943 18.3689 31.822C19.044 31.7979 19.7191 31.8461 20.3822 31.9786C22.733 32.4243 24.9392 33.7251 27.1333 35.9413C27.5793 36.399 27.7963 36.6038 27.8084 36.6038L29.2792 37.9528L30.9669 36.9169C31.1478 36.8085 31.3045 36.7122 31.4974 36.6158C33.1008 35.7727 34.9332 35.5318 36.5125 35.9774C36.621 36.0015 36.7415 36.0377 36.8621 36.0859C38.7307 36.7363 40.1532 38.4466 40.31 40.2413C40.3702 41.1326 40.2135 42.1805 39.9001 42.9513Z" fill="#FF6857"/>
<path d="M39.7306 28.7025C40.9723 29.1361 42.1296 29.7624 43.1785 30.5815V20.6566C43.1785 19.7653 42.8168 18.8861 42.1899 18.2597L24.9023 0.987664C24.2633 0.349296 23.4074 0 22.5032 0C21.5991 0 20.7431 0.349296 20.1042 0.987664L3.08175 18.0068C2.45487 18.6331 2.0932 19.5124 2.0932 20.4037V33.2433C2.72009 32.8459 3.3952 32.5207 4.11853 32.2677C4.32347 32.1954 4.55253 32.1232 4.8057 32.063C5.39642 30.8103 6.14386 29.6781 7.03597 28.6784C7.24091 28.4375 7.46997 28.2087 7.73519 27.9557V21.3432L20.9119 8.17834C21.3459 7.74473 21.9125 7.51588 22.5273 7.51588C23.1422 7.51588 23.7088 7.75678 24.1428 8.17834L37.5726 21.5961V28.1725C38.308 28.2809 39.0434 28.4616 39.7306 28.7025Z" fill="#FF6857"/>
<path d="M35.6086 0.758789H32.438C31.7629 0.758789 31.2083 1.31285 31.2083 1.98735V4.08312L36.8382 9.70799V1.98735C36.8382 1.31285 36.2837 0.758789 35.6086 0.758789Z" fill="#FF6857"/>
<path d="M52.8234 46.7695C52.4015 46.7695 52.0398 46.6129 51.7384 46.3118C51.437 45.9986 51.2924 45.6252 51.2924 45.1796C51.2924 44.7219 51.437 44.3364 51.7384 44.0474C52.0398 43.7583 52.4015 43.6138 52.8234 43.6138C53.2454 43.6138 53.607 43.7583 53.9084 44.0474C54.2098 44.3364 54.3545 44.7098 54.3545 45.1796C54.3545 45.6252 54.2098 45.9986 53.9084 46.3118C53.6191 46.6129 53.2574 46.7695 52.8234 46.7695Z" fill="#1E1E1E"/>
<path d="M65.0718 46.7695C63.5648 46.7695 62.2146 46.4322 61.0332 45.7698C59.8517 45.1073 58.9114 44.1919 58.2363 43.0236C57.5612 41.8553 57.2236 40.5183 57.2236 39.0127C57.2236 37.4951 57.5612 36.1461 58.2363 34.9898C58.9114 33.8335 59.8397 32.9302 61.0332 32.2677C62.2146 31.6173 63.5648 31.28 65.0718 31.28C66.3617 31.28 67.5311 31.533 68.5799 32.0268C69.6167 32.5327 70.4365 33.2795 71.0393 34.2792L69.5082 35.315C68.9898 34.5441 68.3388 33.978 67.5673 33.6047C66.7957 33.2433 65.9518 33.0506 65.0477 33.0506C63.9627 33.0506 62.9982 33.2915 62.1182 33.7853C61.2502 34.2792 60.563 34.9657 60.0687 35.857C59.5624 36.7483 59.3213 37.7842 59.3213 38.9766C59.3213 40.169 59.5745 41.2169 60.0687 42.0962C60.5751 42.9875 61.2502 43.674 62.1182 44.1678C62.9862 44.6617 63.9627 44.9026 65.0477 44.9026C65.9518 44.9026 66.7957 44.7219 67.5673 44.3485C68.3388 43.9872 68.9898 43.4211 69.5082 42.6743L71.0393 43.7101C70.4365 44.6978 69.6167 45.4446 68.5799 45.9505C67.5311 46.5045 66.3617 46.7695 65.0718 46.7695Z" fill="#1E1E1E"/>
<path d="M81.2502 46.7695C79.7673 46.7695 78.4412 46.4323 77.2839 45.7698C76.1266 45.1074 75.2104 44.1799 74.5352 43.0116C73.8601 41.8312 73.5226 40.5063 73.5226 39.0248C73.5226 37.5072 73.8601 36.1582 74.5352 35.0019C75.2104 33.8456 76.1266 32.9422 77.2839 32.2798C78.4412 31.6294 79.7673 31.2921 81.2502 31.2921C82.7571 31.2921 84.0953 31.6294 85.2647 32.2918C86.4341 32.9543 87.3503 33.8576 88.0133 35.0139C88.6764 36.1582 89.0139 37.4951 89.0139 39.0248C89.0139 40.5304 88.6764 41.8674 88.0133 43.0357C87.3503 44.204 86.422 45.1194 85.2526 45.7819C84.0712 46.4323 82.7451 46.7695 81.2502 46.7695ZM81.2502 44.9387C82.3472 44.9387 83.3237 44.6978 84.1797 44.204C85.0236 43.7102 85.6987 43.0236 86.1929 42.1203C86.6872 41.229 86.9283 40.1931 86.9283 39.0128C86.9283 37.8203 86.6872 36.7724 86.1929 35.8932C85.6987 35.0019 85.0356 34.3153 84.1797 33.8215C83.3358 33.3277 82.3593 33.0868 81.2863 33.0868C80.2013 33.0868 79.2369 33.3277 78.393 33.8215C77.5491 34.3153 76.874 35.0019 76.3677 35.8932C75.8614 36.7845 75.6202 37.8203 75.6202 39.0128C75.6202 40.1931 75.8734 41.229 76.3677 42.1203C76.874 43.0116 77.5371 43.7102 78.381 44.204C79.2128 44.6978 80.1772 44.9387 81.2502 44.9387Z" fill="#1E1E1E"/>
<path d="M112.197 31.2921C113.427 31.2921 114.512 31.533 115.428 32.0028C116.344 32.4725 117.055 33.1952 117.574 34.1588C118.08 35.1223 118.345 36.3388 118.345 37.8083V46.625H116.296V38.001C116.296 36.3991 115.91 35.1946 115.15 34.3756C114.391 33.5565 113.318 33.147 111.92 33.147C110.883 33.147 109.979 33.3638 109.207 33.7974C108.448 34.231 107.857 34.8573 107.447 35.6764C107.037 36.4954 106.82 37.4831 106.82 38.6394V46.625H104.771V38.001C104.771 36.3991 104.385 35.1946 103.613 34.3756C102.842 33.5565 101.757 33.147 100.37 33.147C99.3457 33.147 98.4535 33.3638 97.682 33.7974C96.9104 34.231 96.3197 34.8573 95.8978 35.6764C95.4879 36.4954 95.2709 37.4831 95.2709 38.6394V46.625H93.2214V31.4367H95.1865V35.5439L94.873 34.8212C95.3312 33.7251 96.0786 32.8579 97.1154 32.2316C98.1522 31.6053 99.3698 31.2921 100.78 31.2921C102.263 31.2921 103.529 31.6655 104.578 32.4002C105.615 33.147 106.29 34.2551 106.603 35.7366L105.795 35.4234C106.241 34.1949 107.025 33.1952 108.158 32.4243C109.255 31.6775 110.618 31.2921 112.197 31.2921Z" fill="#1E1E1E"/>
</svg>
