<svg width="68" height="68" viewBox="0 0 68 68" fill="none" xmlns="http://www.w3.org/2000/svg">
<g clip-path="url(#clip0_729_11361)">
<path d="M13.45 67.34C13.0913 67.2054 12.7713 66.9844 12.5184 66.6966C12.2655 66.4088 12.0874 66.063 12 65.69C11.59 63.07 12.59 59.8 11.53 57.22C8.53002 51.46 4.32002 45.99 1.41002 40.22C0.740223 38.9017 0.319829 37.471 0.170023 36C0.590023 28.77 -0.369977 20.94 0.170023 13.77C0.213516 12.7403 0.524599 11.7398 1.07261 10.867C1.62061 9.99417 2.38662 9.27926 3.29511 8.79271C4.2036 8.30616 5.22321 8.06478 6.25342 8.09236C7.28363 8.11993 8.28886 8.41552 9.17002 8.94997C9.9298 9.44449 10.5753 10.0955 11.0633 10.8594C11.5513 11.6234 11.8707 12.4827 12 13.38V16.2C12.9582 15.8948 13.9766 15.8292 14.966 16.009C15.9554 16.1888 16.8856 16.6084 17.6752 17.2312C18.4647 17.8539 19.0895 18.6608 19.4948 19.5811C19.9002 20.5014 20.0736 21.5071 20 22.51C21.8351 20.2074 24.2517 18.4364 27 17.38C27.15 17.21 26.35 16.57 26.21 16.38C18.88 7.26997 30 -4.51003 39.39 1.76997C40.5541 2.54129 41.5412 3.55084 42.2862 4.73191C43.0312 5.91299 43.5171 7.2387 43.7118 8.62147C43.9065 10.0042 43.8056 11.4126 43.4157 12.7535C43.0258 14.0943 42.3558 15.3372 41.45 16.4C41.31 16.58 40.51 17.22 40.67 17.4C43.4348 18.4777 45.8786 20.2435 47.77 22.53C47.6833 21.5342 47.8439 20.5324 48.2374 19.6135C48.631 18.6947 49.2454 17.8873 50.026 17.263C50.8066 16.6387 51.7293 16.2168 52.7122 16.0349C53.695 15.8529 54.7076 15.9165 55.66 16.22V13.38C55.7519 12.8504 55.8959 12.3312 56.09 11.83C56.5205 10.7212 57.276 9.76847 58.2575 9.09666C59.239 8.42486 60.4006 8.06539 61.59 8.06539C62.7794 8.06539 63.941 8.42486 64.9225 9.09666C65.904 9.76847 66.6595 10.7212 67.09 11.83L67.52 13.31V36.45C67.2798 37.8052 66.8453 39.1188 66.23 40.35C63.26 46 59.07 51.49 56.11 57.22C55.05 59.8 56.05 63.07 55.64 65.69C55.5536 66.062 55.3771 66.407 55.126 66.6947C54.8749 66.9824 54.5569 67.204 54.2 67.34H13.45ZM33.27 3.99997C24.85 4.78997 26.95 17.75 35.27 15.73C42.5 14 40.49 3.33997 33.27 3.99997ZM15.95 58.6C16.1 60.12 15.84 61.85 15.95 63.4H31.86V46.51C31.6376 45.1559 31.0221 43.8971 30.09 42.89C27.09 39.33 22.67 36.13 19.57 32.5C17.46 30.5 14.7 32.83 16.67 35.26C18.64 37.69 21.56 39.77 23.55 42.18C23.7492 42.5838 23.8063 43.0431 23.7121 43.4834C23.6178 43.9237 23.3777 44.3193 23.0307 44.6062C22.6836 44.8932 22.2499 45.0545 21.7997 45.0643C21.3495 45.074 20.9092 44.9316 20.55 44.66C17.29 40.86 12.63 37.43 9.55002 33.66C8.72123 32.6491 8.21597 31.4121 8.10002 30.11C7.66002 24.81 8.45002 18.94 8.10002 13.58C7.97496 13.1281 7.69511 12.7345 7.30936 12.468C6.92361 12.2015 6.45648 12.079 5.98958 12.1218C5.52268 12.1647 5.08568 12.3703 4.75493 12.7026C4.42418 13.0349 4.22069 13.4729 4.18002 13.94C4.57002 21.07 3.69002 28.71 4.18002 35.77C4.24679 36.6978 4.50921 37.6009 4.95002 38.42C7.69002 43.89 11.95 49.2 14.72 54.68C15.3752 55.9299 15.8115 57.2828 16.01 58.68M35.8 46.51V63.4H51.71V58.6C51.9093 57.2029 52.3455 55.8502 53 54.6C55.81 49.13 60 43.82 62.77 38.34C63.2108 37.5209 63.4733 36.6177 63.54 35.69C64.04 28.62 63.15 20.98 63.54 13.86C63.4994 13.3929 63.2959 12.9549 62.9651 12.6226C62.6344 12.2903 62.1974 12.0847 61.7305 12.0418C61.2636 11.999 60.7964 12.1215 60.4107 12.388C60.0249 12.6545 59.7451 13.0481 59.62 13.5C59.24 18.86 60.03 24.73 59.62 30.03C59.5029 31.3318 58.9977 32.5684 58.17 33.58C55.06 37.4 50.39 40.83 47.17 44.58C46.8109 44.8516 46.3706 44.994 45.9204 44.9843C45.4702 44.9745 45.0364 44.8132 44.6894 44.5262C44.3423 44.2393 44.1022 43.8437 44.008 43.4034C43.9137 42.9631 43.9708 42.5038 44.17 42.1C46.17 39.66 49.33 37.46 51.17 35.05C51.357 34.8553 51.5027 34.6247 51.5982 34.3722C51.6938 34.1197 51.7372 33.8504 51.7259 33.5807C51.7145 33.3109 51.6487 33.0463 51.5324 32.8026C51.416 32.559 51.2516 32.3415 51.0489 32.1631C50.8462 31.9847 50.6095 31.8493 50.3531 31.7648C50.0966 31.6804 49.8257 31.6488 49.5567 31.6718C49.2877 31.6949 49.0262 31.7722 48.7879 31.8991C48.5495 32.0259 48.3394 32.1997 48.17 32.41C45 36.13 40.62 39.33 37.57 42.89C36.634 43.8943 36.0179 45.1544 35.8 46.51ZM15.38 20.46C15.1246 20.2135 14.8083 20.0395 14.4634 19.9557C14.1185 19.8719 13.7576 19.8814 13.4176 19.9832C13.0776 20.085 12.7708 20.2754 12.5287 20.5349C12.2866 20.7945 12.118 21.1137 12.04 21.46C11.8462 24.2967 11.8462 27.1433 12.04 29.98C12.141 30.3608 12.2749 30.7322 12.44 31.09C12.65 31.25 13.32 30.09 13.49 29.85C14.1761 29.0711 15.036 28.4647 16 28.08C15.8 26.08 16.24 23.62 16 21.66C15.9129 21.2187 15.717 20.8063 15.43 20.46M46.75 28.68C45.1 23.68 39.75 20.16 34.61 19.88C31.7172 19.7556 28.8564 20.5273 26.4187 22.0899C23.9809 23.6524 22.085 25.9295 20.99 28.61L33.77 41.18L46.75 28.68ZM55.14 20.46C54.864 20.1957 54.5181 20.016 54.1432 19.9421C53.7682 19.8683 53.38 19.9034 53.0244 20.0434C52.6688 20.1833 52.3608 20.4221 52.1367 20.7317C51.9126 21.0412 51.7819 21.4085 51.76 21.79C51.56 23.79 51.91 26.13 51.76 28.15C52.422 28.3709 53.0386 28.7097 53.58 29.15C54.03 29.33 54.96 31.06 55.22 31.06C55.4316 30.7169 55.5869 30.3421 55.68 29.95C55.8755 27.2335 55.8755 24.5065 55.68 21.79C55.6248 21.2984 55.4227 20.8349 55.1 20.46" fill="#FF6857"/>
</g>
<defs>
<clipPath id="clip0_729_11361">
<rect width="67.48" height="67.34" fill="white"/>
</clipPath>
</defs>
</svg>
