<svg width="72" height="69" viewBox="0 0 72 69" fill="none" xmlns="http://www.w3.org/2000/svg">
<g clip-path="url(#clip0_729_11370)">
<path d="M3.54997 68.75C2.67191 68.6055 1.86423 68.1806 1.24774 67.5389C0.63126 66.8972 0.239114 66.0731 0.129967 65.19C0.439967 58.53 -0.290033 51.5 0.129967 44.89C0.485458 40.6898 2.30376 36.7475 5.26788 33.7505C8.232 30.7535 12.1539 28.8918 16.35 28.49C17.4258 29.5159 18.5611 30.4776 19.75 31.37C18.96 31.37 18.15 31.37 17.35 31.37C13.5632 31.5601 9.98764 33.1726 7.3383 35.8849C4.68895 38.5973 3.16101 42.2098 3.05997 46C2.75997 52.13 3.29997 58.5 3.05997 64.65C2.94997 64.99 3.51997 65.77 3.79997 65.77H46.7C46.4446 66.7589 46.4794 67.8003 46.8 68.77H3.54997" fill="#FF6857"/>
<path d="M50.61 68.75C49.98 68.38 49.53 68.03 49.53 67.24L50.79 59.06L45.34 53.47C45.1669 53.2767 45.0466 53.0422 44.9906 52.7889C44.9345 52.5356 44.9447 52.2722 45.02 52.024C45.0954 51.7758 45.2334 51.5512 45.4208 51.3718C45.6082 51.1925 45.8387 51.0644 46.09 51L53.69 49.81L57.28 42.32C57.4369 42.1477 57.6318 42.0144 57.8492 41.9306C58.0666 41.8468 58.3006 41.8147 58.5325 41.8371C58.7645 41.8594 58.988 41.9354 59.1854 42.0592C59.3829 42.1829 59.5488 42.351 59.67 42.55L63.12 49.89L70.72 51C70.9717 51.0581 71.204 51.1807 71.394 51.3557C71.5841 51.5306 71.7254 51.752 71.804 51.9981C71.8827 52.2442 71.896 52.5065 71.8427 52.7593C71.7894 53.0121 71.6713 53.2466 71.5 53.44L66 59.06C66.28 61.79 66.86 64.51 67.26 67.24C67.232 67.5654 67.117 67.8774 66.927 68.1431C66.7369 68.4087 66.4789 68.6184 66.18 68.75H65.4L58.32 64.88L51.32 68.75H50.61ZM58.51 47C58.28 47 58.35 47 58.29 47.13C57.42 48.48 56.89 50.56 56.05 51.92C55.9151 52.1375 55.7341 52.3227 55.5199 52.4626C55.3056 52.6026 55.0633 52.6938 54.81 52.73C53.15 53.12 51.26 53.1 49.62 53.59L53.48 57.59L53.9 58.35C53.79 60.35 53.23 62.35 53.04 64.43C53.09 64.49 53.76 64.12 53.89 64.06C55.04 63.45 56.56 62.36 57.71 61.92C58.56 61.59 58.97 61.92 59.71 62.23C61.09 62.92 62.44 63.8 63.81 64.53L62.93 58.91C62.8992 58.671 62.9228 58.4282 62.999 58.1997C63.0752 57.9711 63.202 57.7627 63.37 57.59L67.23 53.59L61.93 52.78C61.06 52.59 60.87 52.08 60.51 51.37C59.78 49.97 59.22 48.46 58.51 47.04" fill="#FF6857"/>
<path d="M19 4.44999C27.85 -4.19001 43 0.449989 45.38 12.52C45.9274 15.1895 45.771 17.9556 44.9261 20.5464C44.0812 23.1372 42.577 25.4637 40.5611 27.2974C38.5452 29.131 36.087 30.4088 33.4279 31.0051C30.7689 31.6014 28.0004 31.4958 25.3945 30.6986C22.7886 29.9014 20.4349 28.4401 18.5646 26.4582C16.6943 24.4763 15.3716 22.0419 14.7266 19.3942C14.0816 16.7466 14.1364 13.9767 14.8856 11.3566C15.6348 8.73652 17.0527 6.35638 19 4.44999ZM29.11 2.99999C26.816 3.15699 24.6074 3.93236 22.7188 5.24374C20.8301 6.55513 19.3319 8.35357 18.3832 10.4481C17.4345 12.5425 17.0709 14.8549 17.3308 17.1394C17.5907 19.424 18.4646 21.5955 19.8595 23.4233C21.2545 25.2512 23.1184 26.667 25.2534 27.5206C27.3884 28.3742 29.7148 28.6336 31.9854 28.2712C34.2559 27.9088 36.386 26.9383 38.1493 25.4626C39.9125 23.9869 41.2432 22.0612 42 19.89C42.6849 17.9021 42.868 15.7757 42.533 13.7C42.1979 11.6242 41.3551 9.66343 40.0795 7.99197C38.8039 6.32051 37.135 4.99018 35.2213 4.11927C33.3075 3.24836 31.2082 2.86387 29.11 2.99999Z" fill="#FF6857"/>
<path d="M29.22 34.39L26.41 50.72L30 54C30.23 54 33.15 51.22 33.64 50.91L31 34.44L31.09 34.33L33.91 34L36.74 51.43C36.7099 51.8877 36.5185 52.32 36.2 52.65L30.88 57.28C30.6146 57.4606 30.301 57.5571 29.98 57.5571C29.659 57.5571 29.3454 57.4606 29.08 57.28C27.28 56.02 25.59 53.76 23.76 52.45C23.4912 52.1478 23.3204 51.7712 23.27 51.37L26.27 34.21L26.41 34.06L29.22 34.39Z" fill="#FF6857"/>
<path d="M54.57 33.54C55.6629 34.6379 56.6198 35.8634 57.42 37.19C57.7215 37.6863 57.9855 38.2044 58.21 38.74C58.21 38.94 58.21 38.85 58.07 38.87C57.7329 38.9072 57.3988 38.9673 57.07 39.05C56.5086 39.2854 55.961 39.5525 55.43 39.85C54.2688 37.4457 52.4908 35.3923 50.2774 33.8991C48.0639 32.4059 45.4942 31.5263 42.83 31.35C41.97 31.3 41.1 31.43 40.24 31.35C40.91 30.85 41.6 30.35 42.24 29.83C42.6423 29.3826 43.0732 28.9617 43.53 28.57C43.95 28.35 46.53 29.02 47.17 29.2C49.9507 30.0422 52.4862 31.545 54.56 33.58" fill="#FF6857"/>
</g>
<defs>
<clipPath id="clip0_729_11370">
<rect width="71.87" height="68.75" fill="white"/>
</clipPath>
</defs>
</svg>
