<svg width="360" height="155" viewBox="0 0 360 155" fill="none" xmlns="http://www.w3.org/2000/svg">
<path d="M210.284 28.802C213.624 23.4147 218.648 22.8366 223.961 23.1782C228.459 23.4673 231.72 25.6747 233.43 29.9582C233.456 30.0371 233.535 30.1159 233.588 30.1948C233.772 30.2473 233.798 30.0896 233.825 29.9845C236.008 25.8587 239.611 23.914 244.056 23.2833C246.345 22.9417 248.607 22.968 250.869 23.4936C255.393 24.571 257.734 27.7508 258.891 32.008C259.654 34.8199 259.838 37.6843 259.838 40.575C259.838 45.936 259.838 51.297 259.864 56.6316C259.864 57.3675 259.707 57.6302 258.918 57.604C257.05 57.5514 255.183 57.5514 253.315 57.604C252.5 57.6302 252.237 57.4463 252.237 56.5791C252.289 50.9291 252.263 45.3053 252.237 39.6553C252.237 38.1574 252.053 36.6857 251.658 35.2404C250.501 30.7992 247.371 29.0647 243.083 29.6429C238.691 30.221 235.929 33.2957 235.271 37.9734C235.14 38.972 235.061 39.9969 235.061 40.9955C235.061 46.1988 235.061 51.4021 235.087 56.5791C235.087 57.3412 234.929 57.6302 234.114 57.604C232.22 57.5514 230.3 57.5514 228.406 57.604C227.67 57.6302 227.459 57.3937 227.459 56.6579C227.486 51.0079 227.459 45.3841 227.459 39.7341C227.459 38.2099 227.275 36.712 226.881 35.2141C225.776 31.0094 222.567 28.9334 218.28 29.6166C213.992 30.2999 211.257 33.1643 210.52 37.658C210.336 38.7881 210.284 39.9181 210.284 41.0743C210.284 46.2514 210.257 51.4021 210.31 56.5791C210.31 57.3412 210.152 57.6302 209.337 57.604C207.495 57.5514 205.654 57.5514 203.813 57.604C202.971 57.6302 202.708 57.42 202.708 56.5265C202.735 48.196 202.735 39.8655 202.735 31.535C202.735 29.1961 202.761 26.8573 202.735 24.4922C202.735 23.8352 202.84 23.5461 203.603 23.5724C205.47 23.6249 207.338 23.6249 209.205 23.5724C209.836 23.5724 210.02 23.7563 210.047 24.3608C210.047 25.7536 210.178 27.1464 210.284 28.802Z" fill="#FF6857"/>
<path d="M186.216 51.0343C182.218 56.5792 176.563 57.21 170.671 56.3427C164.621 55.4492 160.492 51.6913 158.466 46.015C156.099 39.3401 156.783 32.928 161.386 27.3042C164.989 22.8893 169.855 21.26 175.458 21.7593C176.984 21.8907 178.483 22.1798 179.903 22.7053C182.402 23.5988 184.559 24.9654 186.216 27.5144C186.295 25.964 186.453 24.6763 186.426 23.3623C186.426 22.39 186.716 22.1009 187.689 22.1535C189.32 22.2323 190.977 22.2323 192.634 22.1535C193.528 22.1009 193.817 22.3637 193.817 23.2835C193.765 30.5103 193.791 37.7371 193.791 44.9638C193.791 48.3276 193.765 51.6913 193.817 55.0288C193.844 55.9748 193.528 56.1851 192.634 56.1588C190.871 56.0799 189.083 56.1062 187.294 56.1588C186.663 56.1588 186.479 55.9486 186.453 55.3441C186.4 53.9513 186.295 52.5322 186.216 51.0343ZM175.511 28.1451C169.487 28.1189 164.832 32.9017 164.779 39.1299C164.726 45.3055 169.435 50.1671 175.432 50.1934C181.508 50.2197 186.216 45.3843 186.216 39.1561C186.216 32.9805 181.508 28.1451 175.511 28.1451Z" fill="#FF6857"/>
<path d="M294.979 28.8808C296.163 27.0675 297.478 25.8061 299.135 24.8338C303.58 22.2584 311.103 22.4949 314.89 25.3856C317.547 27.4091 318.704 30.2736 319.415 33.4008C319.967 35.871 320.072 38.3676 320.098 40.8641C320.125 46.0937 320.098 51.3232 320.125 56.5528C320.125 57.42 319.862 57.6302 319.046 57.6039C317.205 57.5514 315.364 57.5514 313.523 57.6039C312.734 57.6302 312.497 57.42 312.523 56.6053C312.549 51.3495 312.549 46.0937 312.549 40.8378C312.549 39.1822 312.444 37.5529 312.102 35.9236C311.313 32.2445 309.393 30.1947 306.316 29.6954C302.212 29.0122 298.662 30.4838 296.741 33.611C295.61 35.4769 295.058 37.5004 295.058 39.6552C295.005 45.2527 295.005 50.8765 295.032 56.4739C295.032 57.3674 294.795 57.604 293.927 57.5777C292.033 57.5251 290.113 57.5251 288.219 57.5777C287.588 57.5777 287.43 57.3937 287.43 56.763C287.457 45.9623 287.457 35.1615 287.43 24.3607C287.43 23.7563 287.562 23.5461 288.219 23.5461C290.113 23.5987 292.033 23.5987 293.927 23.5461C294.585 23.5198 294.716 23.7826 294.742 24.3607C294.742 25.8061 294.848 27.1989 294.979 28.8808Z" fill="#FF6857"/>
<path d="M360 49.1685C358.08 52.6111 355.292 54.9237 351.767 56.3953C344.586 59.3911 335.907 57.7881 330.646 52.322C326.779 48.3013 325.464 43.3871 326.174 37.9473C327.516 27.6984 336.932 22.206 346.217 23.1521C351.136 23.6514 355.292 25.6223 358.474 29.4591C359.027 30.1424 359.553 30.8782 359.974 31.7454C357.817 32.6389 355.686 33.5061 353.556 34.3996C353.082 34.6098 352.951 34.2156 352.767 33.9528C350.689 30.7468 347.69 29.2751 343.929 29.3277C337.643 29.4328 332.882 35.004 333.566 41.4687C334.223 47.7231 338.905 51.9015 344.955 51.5336C348.269 51.3234 350.899 49.8518 352.688 47.0399C353.003 46.5406 353.266 46.3566 353.871 46.6194C355.897 47.5129 357.948 48.3276 360 49.1685Z" fill="#FF6857"/>
<path d="M268.86 40.4963C268.86 35.109 268.86 29.7218 268.833 24.3345C268.833 23.625 268.991 23.4148 269.728 23.441C271.7 23.4936 273.647 23.4936 275.619 23.441C276.303 23.4148 276.461 23.6513 276.461 24.3083C276.435 35.109 276.435 45.9098 276.461 56.7105C276.461 57.3412 276.277 57.5252 275.672 57.4989C273.673 57.4726 271.674 57.4463 269.675 57.4989C268.991 57.5252 268.833 57.2887 268.833 56.658C268.86 51.2707 268.86 45.8835 268.86 40.4963Z" fill="#FF6857"/>
<path d="M271.912 9.51296C274.411 9.51296 276.462 11.5365 276.488 14.0067C276.515 16.4769 274.489 18.553 271.991 18.5793C269.466 18.6318 267.361 16.5558 267.361 14.033C267.388 11.5627 269.413 9.53923 271.912 9.51296Z" fill="#FF6857"/>
<path d="M134.9 56.8419C131.901 56.8419 129.034 56.4477 126.351 55.6856C123.668 54.9235 121.485 53.9775 119.854 52.8737L123.037 46.5667C124.641 47.5916 126.535 48.4063 128.745 49.0633C130.954 49.694 133.19 50.0356 135.452 50.0356C138.003 50.0356 139.871 49.694 141.054 49.0107C142.238 48.3275 142.817 47.3814 142.817 46.1988C142.817 45.2265 142.422 44.4907 141.633 43.9914C140.844 43.4921 139.792 43.0979 138.529 42.8351C137.24 42.5723 135.82 42.3358 134.242 42.0993C132.664 41.889 131.112 41.5737 129.534 41.2058C127.956 40.8379 126.535 40.286 125.246 39.5502C123.958 38.8144 122.932 37.842 122.143 36.6069C121.354 35.3718 120.959 33.7162 120.959 31.6402C120.959 29.4327 121.59 27.5143 122.879 25.8324C124.168 24.1769 125.957 22.8892 128.271 21.9694C130.586 21.0496 133.348 20.5766 136.53 20.5766C138.871 20.5766 141.265 20.8657 143.737 21.4175C146.183 21.9694 148.235 22.7315 149.866 23.7038L146.604 29.9846C144.974 29.0122 143.29 28.329 141.554 27.9611C139.818 27.5932 138.135 27.4092 136.451 27.4092C133.979 27.4092 132.111 27.7771 130.875 28.5129C129.639 29.2487 129.008 30.1685 129.008 31.3248C129.008 32.376 129.402 33.1906 130.191 33.7162C130.98 34.2418 132.032 34.6623 133.295 34.9513C134.584 35.2404 136.004 35.5032 137.582 35.7397C139.161 35.9762 140.712 36.2916 142.264 36.6595C143.816 37.0274 145.237 37.553 146.552 38.2625C147.867 38.9458 148.893 39.9181 149.708 41.1532C150.497 42.3884 150.892 43.9914 150.892 45.9886C150.892 48.2486 150.234 50.167 148.945 51.7963C147.63 53.3993 145.815 54.6607 143.448 55.5805C141.054 56.3952 138.214 56.8419 134.9 56.8419Z" fill="#FF6857"/>
<path d="M94.2877 103.356C95.6291 101.884 96.7339 100.097 97.6019 98.0477C98.9959 94.684 99.6009 90.5581 99.2589 86.7739C98.7592 81.4655 96.0763 76.2622 91.8415 72.5043C89.5532 70.4545 86.9492 68.9303 84.1085 67.9317C82.5566 67.4061 80.9521 67.012 79.3214 66.828C74.9025 66.2499 70.3258 66.828 66.0647 68.5624L65.6175 68.7464L65.2493 68.4048C59.3838 63.0438 53.3078 59.8377 46.6269 58.55C44.3122 58.1033 41.9713 57.9193 39.6566 57.9982C32.3444 58.2347 25.5319 61.0203 20.4818 65.8557C19.9294 66.3813 19.4034 66.9068 18.9299 67.4587C17.1413 69.4822 15.6421 71.7685 14.4584 74.3176L14.3006 74.6592L13.9324 74.738C13.3274 74.8957 12.8014 75.0534 12.3279 75.2111C10.5656 75.8155 8.90853 76.6827 7.43556 77.8127C3.2008 80.9137 0.517906 85.5388 0.0707565 90.5056C-0.192272 93.5802 0.281181 96.8126 1.43851 99.6245C1.88566 100.702 2.43802 101.674 3.04298 102.541C4.59485 104.775 6.67278 106.378 9.06634 107.219L9.98695 107.535H87.6331L88.5537 107.219C90.7105 106.457 92.6569 105.143 94.2877 103.356ZM87.0544 93.7116C86.7388 94.4737 86.3179 95.157 85.8708 95.6826C85.7919 95.7614 85.6867 95.8665 85.5814 95.9716L85.371 96.1556H12.4068L12.1964 95.7351C12.1175 95.6037 12.0386 95.4461 11.986 95.2884C11.5388 94.2372 11.3284 92.7656 11.4336 91.5305C11.644 89.1653 13.5904 86.879 16.1681 85.9855C16.3522 85.933 16.6153 85.8542 16.9046 85.7753L17.1676 85.7227C17.6411 85.6176 18.1145 85.5914 18.5617 85.5914L22.7438 85.5388L23.9275 81.5181C24.664 79.0741 25.8739 76.8404 27.4784 75.0534C30.5032 71.6371 35.0799 69.5873 40.0774 69.4296C41.5504 69.3771 43.0234 69.4822 44.47 69.7713C49.5991 70.7436 54.4125 73.5818 59.1996 78.4171C60.1728 79.4157 60.6463 79.8625 60.6726 79.8625L63.8816 82.8058L67.564 80.5457C67.9585 80.3092 68.3004 80.099 68.7213 79.8888C72.2196 78.0492 76.2176 77.5236 79.6633 78.496C79.9 78.5485 80.163 78.6274 80.4261 78.7325C84.503 80.1516 87.6068 83.8832 87.9487 87.7988C88.0802 89.7435 87.7383 92.0298 87.0544 93.7116Z" fill="#FF6857"/>
<path d="M86.6864 62.6234C89.3956 63.5694 91.9206 64.9359 94.209 66.7229V45.0688C94.209 43.1242 93.4199 41.2058 92.0522 39.8393L54.3338 2.15489C52.9398 0.762096 51.0723 0 49.0996 0C47.1268 0 45.2593 0.762096 43.8653 2.15489L6.72561 39.2874C5.35786 40.6539 4.56877 42.5723 4.56877 44.517V72.5306C5.93652 71.6634 7.40948 70.9539 8.98765 70.402C9.4348 70.2443 9.93456 70.0866 10.4869 69.9553C11.7758 67.2222 13.4065 64.752 15.353 62.5708C15.8001 62.0452 16.2999 61.5459 16.8785 60.994V46.5668L45.6276 17.8436C46.5745 16.8975 47.8107 16.3982 49.1522 16.3982C50.4936 16.3982 51.7298 16.9238 52.6768 17.8436L81.9782 47.1186V61.4671C83.5826 61.7036 85.1871 62.0978 86.6864 62.6234Z" fill="#FF6857"/>
<path d="M77.6905 1.65558H70.7728C69.2999 1.65558 68.09 2.86443 68.09 4.33606V8.90864L80.3734 21.181V4.33606C80.3734 2.86443 79.1635 1.65558 77.6905 1.65558Z" fill="#FF6857"/>
<path d="M115.252 102.042C114.331 102.042 113.542 101.7 112.884 101.044C112.227 100.36 111.911 99.5456 111.911 98.5733C111.911 97.5747 112.227 96.7337 112.884 96.103C113.542 95.4723 114.331 95.157 115.252 95.157C116.172 95.157 116.961 95.4723 117.619 96.103C118.277 96.7337 118.592 97.5484 118.592 98.5733C118.592 99.5456 118.277 100.36 117.619 101.044C116.988 101.7 116.199 102.042 115.252 102.042Z" fill="#FF6857"/>
<path d="M141.975 102.042C138.687 102.042 135.741 101.306 133.163 99.8611C130.585 98.4157 128.534 96.4185 127.061 93.8694C125.588 91.3203 124.851 88.4033 124.851 85.1184C124.851 81.8073 125.588 78.864 127.061 76.3412C128.534 73.8184 130.559 71.8474 133.163 70.4021C135.741 68.983 138.687 68.2472 141.975 68.2472C144.789 68.2472 147.34 68.7991 149.629 69.8765C151.891 70.9802 153.679 72.6095 154.995 74.7907L151.654 77.0507C150.523 75.3689 149.103 74.1337 147.419 73.3191C145.736 72.5307 143.895 72.1102 141.922 72.1102C139.555 72.1102 137.451 72.6358 135.53 73.7133C133.637 74.7907 132.137 76.2886 131.059 78.2333C129.954 80.1779 129.428 82.438 129.428 85.0396C129.428 87.6413 129.981 89.9275 131.059 91.8459C132.164 93.7906 133.637 95.2885 135.53 96.3659C137.424 97.4434 139.555 97.969 141.922 97.969C143.895 97.969 145.736 97.5748 147.419 96.7601C149.103 95.9718 150.523 94.7366 151.654 93.1073L154.995 95.3673C153.679 97.5222 151.891 99.1515 149.629 100.255C147.34 101.464 144.789 102.042 141.975 102.042Z" fill="#FF6857"/>
<path d="M177.273 102.042C174.037 102.042 171.144 101.306 168.619 99.8611C166.094 98.4157 164.095 96.3922 162.622 93.8431C161.149 91.2678 160.413 88.377 160.413 85.1447C160.413 81.8335 161.149 78.8903 162.622 76.3675C164.095 73.8447 166.094 71.8737 168.619 70.4284C171.144 69.0093 174.037 68.2735 177.273 68.2735C180.561 68.2735 183.48 69.0093 186.032 70.4546C188.583 71.9 190.582 73.8709 192.029 76.3937C193.475 78.8903 194.212 81.8072 194.212 85.1447C194.212 88.4296 193.475 91.3466 192.029 93.8957C190.582 96.4448 188.557 98.442 186.005 99.8874C183.428 101.306 180.534 102.042 177.273 102.042ZM177.273 98.0478C179.666 98.0478 181.797 97.5222 183.664 96.4448C185.506 95.3673 186.979 93.8694 188.057 91.8985C189.135 89.9538 189.661 87.6938 189.661 85.1184C189.661 82.5168 189.135 80.2305 188.057 78.3121C186.979 76.3674 185.532 74.8695 183.664 73.7921C181.823 72.7146 179.693 72.1891 177.352 72.1891C174.984 72.1891 172.88 72.7146 171.039 73.7921C169.198 74.8695 167.725 76.3674 166.62 78.3121C165.515 80.2568 164.989 82.5168 164.989 85.1184C164.989 87.6938 165.542 89.9538 166.62 91.8985C167.725 93.8431 169.171 95.3673 171.013 96.4448C172.828 97.5222 174.932 98.0478 177.273 98.0478Z" fill="#FF6857"/>
<path d="M244.794 68.2735C247.477 68.2735 249.844 68.799 251.843 69.8239C253.842 70.8488 255.394 72.4256 256.525 74.5279C257.629 76.6302 258.208 79.2844 258.208 82.4905V101.727H253.737V82.911C253.737 79.4158 252.895 76.7879 251.238 75.0009C249.581 73.2139 247.24 72.3204 244.189 72.3204C241.927 72.3204 239.954 72.7935 238.271 73.7395C236.613 74.6856 235.325 76.0521 234.43 77.8391C233.536 79.6261 233.063 81.781 233.063 84.3038V101.727H228.591V82.911C228.591 79.4158 227.749 76.7879 226.066 75.0009C224.383 73.2139 222.015 72.3204 218.99 72.3204C216.755 72.3204 214.808 72.7935 213.125 73.7395C211.442 74.6856 210.153 76.0521 209.232 77.8391C208.338 79.6261 207.864 81.781 207.864 84.3038V101.727H203.393V68.5888H207.68V77.55L206.996 75.9733C207.996 73.5819 209.627 71.6898 211.889 70.3232C214.151 68.9567 216.807 68.2735 219.885 68.2735C223.12 68.2735 225.882 69.0881 228.17 70.6911C230.432 72.3205 231.905 74.7381 232.589 77.9705L230.827 77.2872C231.8 74.6067 233.51 72.4256 235.982 70.7437C238.376 69.1144 241.348 68.2735 244.794 68.2735Z" fill="#FF6857"/>
<path d="M12.376 148.192C5.656 148.192 0.664 143.36 0.664 136.8C0.664 130.24 5.656 125.408 12.408 125.408C15.672 125.408 18.616 126.496 20.6 128.672L19.096 130.176C17.272 128.32 15.032 127.52 12.472 127.52C7.064 127.52 3 131.488 3 136.8C3 142.112 7.064 146.08 12.472 146.08C15.032 146.08 17.272 145.28 19.096 143.392L20.6 144.896C18.616 147.072 15.672 148.192 12.376 148.192Z" fill="black" fill-opacity="0.8"/>
<path d="M31.298 148.16C26.37 148.16 22.722 144.576 22.722 139.584C22.722 134.592 26.37 131.04 31.298 131.04C36.226 131.04 39.842 134.592 39.842 139.584C39.842 144.576 36.226 148.16 31.298 148.16ZM31.298 146.144C34.882 146.144 37.538 143.52 37.538 139.584C37.538 135.648 34.882 133.024 31.298 133.024C27.714 133.024 25.026 135.648 25.026 139.584C25.026 143.52 27.714 146.144 31.298 146.144Z" fill="black" fill-opacity="0.8"/>
<path d="M53.0565 131.04C57.1525 131.04 59.9685 133.408 59.9685 138.24V148H57.6965V138.464C57.6965 134.912 55.8405 133.088 52.6405 133.088C49.0245 133.088 46.7525 135.328 46.7525 139.168V148H44.4805V131.168H46.6565V134.272C47.8725 132.224 50.1445 131.04 53.0565 131.04Z" fill="black" fill-opacity="0.8"/>
<path d="M74.7128 131.04C78.8088 131.04 81.6247 133.408 81.6247 138.24V148H79.3528V138.464C79.3528 134.912 77.4968 133.088 74.2968 133.088C70.6808 133.088 68.4088 135.328 68.4088 139.168V148H66.1367V131.168H68.3128V134.272C69.5288 132.224 71.8008 131.04 74.7128 131.04Z" fill="black" fill-opacity="0.8"/>
<path d="M102.544 139.584C102.544 139.776 102.511 140.032 102.511 140.288H88.4315C88.6875 143.808 91.3755 146.144 95.0555 146.144C97.1035 146.144 98.9275 145.408 100.207 143.936L101.488 145.408C99.9835 147.2 97.6475 148.16 94.9915 148.16C89.7435 148.16 86.1595 144.576 86.1595 139.584C86.1595 134.592 89.6475 131.04 94.3835 131.04C99.1195 131.04 102.544 134.528 102.544 139.584ZM94.3835 132.992C91.1195 132.992 88.7195 135.296 88.4315 138.592H100.368C100.08 135.296 97.6795 132.992 94.3835 132.992Z" fill="black" fill-opacity="0.8"/>
<path d="M114.144 148.16C109.12 148.16 105.472 144.608 105.472 139.584C105.472 134.56 109.12 131.04 114.144 131.04C116.992 131.04 119.392 132.16 120.736 134.368L119.04 135.52C117.888 133.824 116.096 133.024 114.144 133.024C110.464 133.024 107.776 135.648 107.776 139.584C107.776 143.552 110.464 146.144 114.144 146.144C116.096 146.144 117.888 145.376 119.04 143.68L120.736 144.832C119.392 147.008 116.992 148.16 114.144 148.16Z" fill="black" fill-opacity="0.8"/>
<path d="M133.451 145.344L134.251 146.976C133.355 147.776 132.011 148.16 130.699 148.16C127.531 148.16 125.771 146.368 125.771 143.264V133.088H122.763V131.168H125.771V127.488H128.043V131.168H133.163V133.088H128.043V143.136C128.043 145.12 129.067 146.208 130.955 146.208C131.883 146.208 132.811 145.92 133.451 145.344Z" fill="black" fill-opacity="0.8"/>
<path d="M152.481 139.584C152.481 139.776 152.449 140.032 152.449 140.288H138.369C138.625 143.808 141.313 146.144 144.993 146.144C147.041 146.144 148.865 145.408 150.145 143.936L151.425 145.408C149.921 147.2 147.585 148.16 144.929 148.16C139.681 148.16 136.097 144.576 136.097 139.584C136.097 134.592 139.585 131.04 144.321 131.04C149.057 131.04 152.481 134.528 152.481 139.584ZM144.321 132.992C141.057 132.992 138.657 135.296 138.369 138.592H150.305C150.017 135.296 147.617 132.992 144.321 132.992Z" fill="black" fill-opacity="0.8"/>
<path d="M159.281 134.464C160.337 132.224 162.481 131.04 165.585 131.04V133.248C165.393 133.248 165.202 133.216 165.042 133.216C161.522 133.216 159.378 135.456 159.378 139.424V148H157.105V131.168H159.281V134.464Z" fill="black" fill-opacity="0.8"/>
<path d="M178.324 148V124.256H180.596V148H178.324Z" fill="black" fill-opacity="0.8"/>
<path d="M201.606 139.584C201.606 139.776 201.574 140.032 201.574 140.288H187.494C187.75 143.808 190.438 146.144 194.118 146.144C196.166 146.144 197.99 145.408 199.27 143.936L200.55 145.408C199.046 147.2 196.71 148.16 194.054 148.16C188.806 148.16 185.222 144.576 185.222 139.584C185.222 134.592 188.71 131.04 193.446 131.04C198.182 131.04 201.606 134.528 201.606 139.584ZM193.446 132.992C190.182 132.992 187.782 135.296 187.494 138.592H199.43C199.142 135.296 196.742 132.992 193.446 132.992Z" fill="black" fill-opacity="0.8"/>
<path d="M210.742 148.16C207.958 148.16 205.271 147.264 203.895 146.08L204.919 144.288C206.263 145.344 208.534 146.176 210.902 146.176C214.102 146.176 215.415 145.088 215.415 143.424C215.415 139.04 204.503 142.496 204.503 135.84C204.503 133.088 206.87 131.04 211.158 131.04C213.334 131.04 215.703 131.648 217.111 132.608L216.118 134.432C214.646 133.408 212.886 132.992 211.158 132.992C208.118 132.992 206.775 134.176 206.775 135.776C206.775 140.32 217.686 136.896 217.686 143.36C217.686 146.272 215.126 148.16 210.742 148.16Z" fill="black" fill-opacity="0.8"/>
<path d="M243.67 131.168H245.846V145.952C245.846 151.744 242.998 154.368 237.43 154.368C234.358 154.368 231.35 153.44 229.59 151.776L230.742 150.048C232.342 151.488 234.774 152.352 237.366 152.352C241.622 152.352 243.574 150.4 243.574 146.24V144.096C242.166 146.24 239.766 147.36 237.014 147.36C232.214 147.36 228.566 144 228.566 139.168C228.566 134.336 232.214 131.04 237.014 131.04C239.83 131.04 242.262 132.192 243.67 134.4V131.168ZM237.238 145.344C240.95 145.344 243.638 142.816 243.638 139.168C243.638 135.52 240.95 133.024 237.238 133.024C233.526 133.024 230.87 135.52 230.87 139.168C230.87 142.816 233.526 145.344 237.238 145.344Z" fill="black" fill-opacity="0.8"/>
<path d="M266.887 139.584C266.887 139.776 266.855 140.032 266.855 140.288H252.775C253.031 143.808 255.719 146.144 259.399 146.144C261.447 146.144 263.271 145.408 264.551 143.936L265.831 145.408C264.327 147.2 261.991 148.16 259.335 148.16C254.087 148.16 250.503 144.576 250.503 139.584C250.503 134.592 253.991 131.04 258.727 131.04C263.463 131.04 266.887 134.528 266.887 139.584ZM258.727 132.992C255.463 132.992 253.063 135.296 252.775 138.592H264.711C264.423 135.296 262.023 132.992 258.727 132.992Z" fill="black" fill-opacity="0.8"/>
<path d="M280.088 131.04C284.184 131.04 287 133.408 287 138.24V148H284.728V138.464C284.728 134.912 282.872 133.088 279.672 133.088C276.056 133.088 273.784 135.328 273.784 139.168V148H271.512V131.168H273.688V134.272C274.904 132.224 277.176 131.04 280.088 131.04Z" fill="black" fill-opacity="0.8"/>
<path d="M297.68 148.16C294.896 148.16 292.208 147.264 290.832 146.08L291.856 144.288C293.2 145.344 295.472 146.176 297.84 146.176C301.04 146.176 302.352 145.088 302.352 143.424C302.352 139.04 291.44 142.496 291.44 135.84C291.44 133.088 293.808 131.04 298.096 131.04C300.272 131.04 302.64 131.648 304.048 132.608L303.056 134.432C301.584 133.408 299.824 132.992 298.096 132.992C295.056 132.992 293.712 134.176 293.712 135.776C293.712 140.32 304.624 136.896 304.624 143.36C304.624 146.272 302.064 148.16 297.68 148.16Z" fill="black" fill-opacity="0.8"/>
</svg>
