<svg width="360" height="163" viewBox="0 0 360 163" fill="none" xmlns="http://www.w3.org/2000/svg">
<path d="M210.284 28.8019C213.624 23.4147 218.648 22.8366 223.961 23.1782C228.459 23.4673 231.72 25.6747 233.43 29.9582C233.456 30.0371 233.535 30.1159 233.588 30.1947C233.772 30.2473 233.798 30.0896 233.825 29.9845C236.008 25.8587 239.611 23.914 244.056 23.2833C246.345 22.9417 248.607 22.968 250.869 23.4935C255.393 24.571 257.734 27.7508 258.891 32.008C259.654 34.8199 259.838 37.6843 259.838 40.575C259.838 45.936 259.838 51.2969 259.864 56.6316C259.864 57.3674 259.707 57.6302 258.918 57.6039C257.05 57.5514 255.183 57.5514 253.315 57.6039C252.5 57.6302 252.237 57.4463 252.237 56.5791C252.289 50.929 252.263 45.3053 252.237 39.6553C252.237 38.1573 252.052 36.6857 251.658 35.2403C250.501 30.7992 247.371 29.0647 243.083 29.6429C238.691 30.221 235.929 33.2957 235.271 37.9734C235.14 38.972 235.061 39.9969 235.061 40.9955C235.061 46.1988 235.061 51.4021 235.087 56.5791C235.087 57.3412 234.929 57.6302 234.114 57.6039C232.22 57.5514 230.3 57.5514 228.406 57.6039C227.67 57.6302 227.459 57.3937 227.459 56.6579C227.486 51.0079 227.459 45.3841 227.459 39.7341C227.459 38.2099 227.275 36.712 226.881 35.2141C225.776 31.0094 222.567 28.9333 218.28 29.6166C213.992 30.2999 211.257 33.1643 210.52 37.658C210.336 38.788 210.284 39.918 210.284 41.0743C210.284 46.2513 210.257 51.4021 210.31 56.5791C210.31 57.3412 210.152 57.6302 209.337 57.6039C207.495 57.5514 205.654 57.5514 203.813 57.6039C202.971 57.6302 202.708 57.42 202.708 56.5265C202.735 48.196 202.735 39.8655 202.735 31.535C202.735 29.1961 202.761 26.8573 202.735 24.4921C202.735 23.8352 202.84 23.5461 203.603 23.5724C205.47 23.6249 207.338 23.6249 209.205 23.5724C209.836 23.5724 210.02 23.7563 210.047 24.3607C210.047 25.7535 210.178 27.1464 210.284 28.8019Z" fill="white"/>
<path d="M186.216 51.0343C182.218 56.5793 176.563 57.21 170.671 56.3427C164.621 55.4492 160.492 51.6913 158.466 46.015C156.099 39.3401 156.783 32.928 161.386 27.3042C164.989 22.8893 169.856 21.26 175.458 21.7593C176.984 21.8907 178.483 22.1798 179.903 22.7053C182.402 23.5988 184.559 24.9654 186.216 27.5144C186.295 25.964 186.453 24.6763 186.426 23.3623C186.426 22.39 186.716 22.1009 187.689 22.1535C189.32 22.2323 190.977 22.2323 192.634 22.1535C193.528 22.1009 193.817 22.3637 193.817 23.2835C193.765 30.5103 193.791 37.7371 193.791 44.9638C193.791 48.3276 193.765 51.6913 193.817 55.0288C193.844 55.9748 193.528 56.1851 192.634 56.1588C190.872 56.0799 189.083 56.1062 187.294 56.1588C186.663 56.1588 186.479 55.9486 186.453 55.3441C186.4 53.9513 186.295 52.5323 186.216 51.0343ZM175.511 28.1451C169.487 28.1189 164.832 32.9017 164.779 39.1299C164.726 45.3055 169.435 50.1671 175.432 50.1934C181.508 50.2197 186.216 45.3843 186.216 39.1561C186.216 32.9805 181.508 28.1451 175.511 28.1451Z" fill="white"/>
<path d="M294.979 28.8808C296.163 27.0675 297.478 25.8061 299.135 24.8338C303.58 22.2585 311.103 22.495 314.89 25.3857C317.547 27.4092 318.704 30.2736 319.415 33.4008C319.967 35.8711 320.072 38.3676 320.098 40.8641C320.125 46.0937 320.098 51.3233 320.125 56.5528C320.125 57.42 319.862 57.6303 319.046 57.604C317.205 57.5514 315.364 57.5514 313.523 57.604C312.734 57.6303 312.497 57.42 312.523 56.6054C312.549 51.3495 312.549 46.0937 312.549 40.8379C312.549 39.1823 312.444 37.5529 312.102 35.9236C311.313 32.2445 309.393 30.1948 306.316 29.6955C302.212 29.0122 298.662 30.4838 296.741 33.6111C295.61 35.4769 295.058 37.5004 295.058 39.6553C295.005 45.2528 295.005 50.8765 295.032 56.474C295.032 57.3675 294.795 57.604 293.927 57.5777C292.033 57.5252 290.113 57.5252 288.219 57.5777C287.588 57.5777 287.43 57.3938 287.43 56.7631C287.457 45.9623 287.457 35.1615 287.43 24.3608C287.43 23.7564 287.562 23.5461 288.219 23.5461C290.113 23.5987 292.033 23.5987 293.927 23.5461C294.585 23.5199 294.716 23.7826 294.742 24.3608C294.742 25.8061 294.848 27.1989 294.979 28.8808Z" fill="white"/>
<path d="M360 49.1685C358.08 52.6111 355.292 54.9236 351.767 56.3953C344.586 59.3911 335.907 57.7881 330.646 52.322C326.779 48.3013 325.464 43.387 326.174 37.9472C327.516 27.6984 336.932 22.206 346.217 23.1521C351.136 23.6514 355.292 25.6223 358.474 29.4591C359.027 30.1423 359.553 30.8781 359.974 31.7454C357.817 32.6388 355.686 33.5061 353.556 34.3996C353.082 34.6098 352.951 34.2156 352.767 33.9528C350.689 30.7467 347.69 29.2751 343.929 29.3277C337.643 29.4328 332.882 35.004 333.566 41.4687C334.223 47.7231 338.905 51.9015 344.955 51.5336C348.269 51.3234 350.899 49.8517 352.688 47.0399C353.003 46.5406 353.266 46.3566 353.871 46.6194C355.897 47.5129 357.948 48.3275 360 49.1685Z" fill="white"/>
<path d="M268.86 40.4962C268.86 35.109 268.86 29.7217 268.833 24.3345C268.833 23.625 268.991 23.4147 269.728 23.441C271.7 23.4935 273.647 23.4935 275.619 23.441C276.303 23.4147 276.461 23.6512 276.461 24.3082C276.435 35.109 276.435 45.9097 276.461 56.7105C276.461 57.3412 276.277 57.5251 275.672 57.4988C273.673 57.4726 271.674 57.4463 269.675 57.4988C268.991 57.5251 268.833 57.2886 268.833 56.6579C268.86 51.2707 268.86 45.8834 268.86 40.4962Z" fill="white"/>
<path d="M271.912 9.51294C274.411 9.51294 276.462 11.5364 276.489 14.0067C276.515 16.4769 274.489 18.553 271.991 18.5793C269.466 18.6318 267.361 16.5558 267.361 14.033C267.388 11.5627 269.413 9.53922 271.912 9.51294Z" fill="white"/>
<path d="M134.9 56.842C131.901 56.842 129.034 56.4478 126.351 55.6857C123.668 54.9236 121.485 53.9775 119.854 52.8738L123.037 46.5668C124.641 47.5917 126.535 48.4063 128.745 49.0633C130.954 49.694 133.19 50.0357 135.452 50.0357C138.003 50.0357 139.871 49.694 141.054 49.0108C142.238 48.3275 142.817 47.3815 142.817 46.1989C142.817 45.2266 142.422 44.4907 141.633 43.9914C140.844 43.4921 139.792 43.0979 138.529 42.8352C137.24 42.5724 135.82 42.3358 134.242 42.0993C132.664 41.8891 131.112 41.5737 129.534 41.2058C127.956 40.8379 126.535 40.2861 125.246 39.5503C123.958 38.8144 122.932 37.8421 122.143 36.607C121.354 35.3719 120.959 33.7163 120.959 31.6402C120.959 29.4328 121.59 27.5144 122.879 25.8325C124.168 24.1769 125.957 22.8892 128.271 21.9695C130.586 21.0497 133.348 20.5767 136.53 20.5767C138.871 20.5767 141.265 20.8657 143.737 21.4176C146.183 21.9695 148.235 22.7316 149.866 23.7039L146.604 29.9846C144.974 29.0123 143.29 28.329 141.554 27.9611C139.818 27.5932 138.135 27.4093 136.451 27.4093C133.979 27.4093 132.111 27.7772 130.875 28.513C129.639 29.2488 129.008 30.1686 129.008 31.3249C129.008 32.376 129.402 33.1907 130.191 33.7163C130.98 34.2418 132.032 34.6623 133.295 34.9514C134.584 35.2405 136.004 35.5033 137.582 35.7398C139.161 35.9763 140.712 36.2916 142.264 36.6595C143.816 37.0274 145.237 37.553 146.552 38.2626C147.867 38.9458 148.893 39.9182 149.708 41.1533C150.497 42.3884 150.892 43.9914 150.892 45.9887C150.892 48.2487 150.234 50.1671 148.945 51.7964C147.63 53.3994 145.815 54.6608 143.448 55.5806C141.054 56.3952 138.214 56.842 134.9 56.842Z" fill="white"/>
<path d="M94.2877 103.356C95.6291 101.885 96.7339 100.098 97.6019 98.0477C98.9959 94.684 99.6009 90.5581 99.2589 86.7739C98.7592 81.4655 96.0763 76.2623 91.8415 72.5043C89.5532 70.4546 86.9492 68.9304 84.1085 67.9318C82.5566 67.4062 80.9521 67.012 79.3214 66.828C74.9025 66.2499 70.3258 66.828 66.0647 68.5625L65.6175 68.7464L65.2493 68.4048C59.3838 63.0438 53.3078 59.8378 46.6269 58.5501C44.3122 58.1033 41.9713 57.9194 39.6566 57.9982C32.3444 58.2347 25.5319 61.0203 20.4818 65.8557C19.9294 66.3813 19.4034 66.9069 18.9299 67.4587C17.1413 69.4822 15.6421 71.7685 14.4584 74.3176L14.3006 74.6592L13.9324 74.7381C13.3274 74.8957 12.8014 75.0534 12.3279 75.2111C10.5656 75.8155 8.90853 76.6827 7.43556 77.8127C3.2008 80.9137 0.517906 85.5388 0.0707565 90.5056C-0.192272 93.5803 0.281181 96.8126 1.43851 99.6245C1.88566 100.702 2.43802 101.674 3.04298 102.541C4.59485 104.775 6.67278 106.378 9.06634 107.219L9.98695 107.535H87.6331L88.5537 107.219C90.7105 106.457 92.6569 105.143 94.2877 103.356ZM87.0544 93.7117C86.7388 94.4738 86.3179 95.157 85.8708 95.6826C85.7919 95.7614 85.6867 95.8666 85.5814 95.9717L85.371 96.1556H12.4068L12.1964 95.7352C12.1175 95.6038 12.0386 95.4461 11.986 95.2884C11.5388 94.2372 11.3284 92.7656 11.4336 91.5305C11.644 89.1654 13.5904 86.8791 16.1681 85.9856C16.3522 85.933 16.6153 85.8542 16.9046 85.7753L17.1676 85.7228C17.6411 85.6177 18.1145 85.5914 18.5617 85.5914L22.7438 85.5388L23.9275 81.5181C24.664 79.0741 25.8739 76.8404 27.4784 75.0534C30.5032 71.6371 35.0799 69.5873 40.0774 69.4297C41.5504 69.3771 43.0234 69.4822 44.47 69.7713C49.5991 70.7436 54.4125 73.5818 59.1996 78.4172C60.1728 79.4158 60.6463 79.8625 60.6726 79.8625L63.8816 82.8058L67.564 80.5458C67.9585 80.3093 68.3004 80.099 68.7213 79.8888C72.2196 78.0492 76.2176 77.5237 79.6633 78.496C79.9 78.5485 80.163 78.6274 80.4261 78.7325C84.503 80.1516 87.6068 83.8832 87.9487 87.7988C88.0802 89.7435 87.7383 92.0298 87.0544 93.7117Z" fill="white"/>
<path d="M86.6864 62.6234C89.3956 63.5694 91.9207 64.9359 94.209 66.7229V45.0688C94.209 43.1242 93.4199 41.2058 92.0522 39.8393L54.3338 2.15489C52.9398 0.762096 51.0723 0 49.0996 0C47.1268 0 45.2593 0.762096 43.8653 2.15489L6.72561 39.2874C5.35786 40.6539 4.56877 42.5723 4.56877 44.517V72.5306C5.93652 71.6634 7.40948 70.9539 8.98766 70.402C9.43481 70.2443 9.93456 70.0867 10.4869 69.9553C11.7758 67.2222 13.4065 64.752 15.353 62.5708C15.8001 62.0452 16.2999 61.5459 16.8785 60.9941V46.5668L45.6276 17.8436C46.5745 16.8975 47.8107 16.3982 49.1522 16.3982C50.4936 16.3982 51.7298 16.9238 52.6768 17.8436L81.9782 47.1186V61.4671C83.5826 61.7036 85.1871 62.0978 86.6864 62.6234Z" fill="white"/>
<path d="M77.6905 1.65564H70.7728C69.2999 1.65564 68.09 2.86449 68.09 4.33612V8.9087L80.3734 21.1811V4.33612C80.3734 2.86449 79.1635 1.65564 77.6905 1.65564Z" fill="white"/>
<path d="M115.252 102.042C114.331 102.042 113.542 101.7 112.884 101.044C112.227 100.36 111.911 99.5456 111.911 98.5733C111.911 97.5747 112.227 96.7337 112.884 96.103C113.542 95.4723 114.331 95.157 115.252 95.157C116.172 95.157 116.961 95.4723 117.619 96.103C118.277 96.7337 118.592 97.5484 118.592 98.5733C118.592 99.5456 118.277 100.36 117.619 101.044C116.988 101.7 116.199 102.042 115.252 102.042Z" fill="#1E1E1E"/>
<path d="M141.975 102.042C138.687 102.042 135.741 101.306 133.163 99.8611C130.585 98.4157 128.534 96.4185 127.061 93.8694C125.588 91.3203 124.851 88.4034 124.851 85.1185C124.851 81.8073 125.588 78.864 127.061 76.3412C128.534 73.8184 130.559 71.8474 133.163 70.4021C135.741 68.983 138.687 68.2472 141.975 68.2472C144.789 68.2472 147.34 68.7991 149.629 69.8765C151.891 70.9802 153.679 72.6095 154.995 74.7907L151.654 77.0507C150.523 75.3689 149.103 74.1337 147.419 73.3191C145.736 72.5307 143.895 72.1102 141.922 72.1102C139.555 72.1102 137.451 72.6358 135.53 73.7133C133.637 74.7907 132.137 76.2886 131.059 78.2333C129.954 80.178 129.428 82.438 129.428 85.0396C129.428 87.6413 129.981 89.9275 131.059 91.8459C132.164 93.7906 133.637 95.2885 135.53 96.366C137.424 97.4434 139.555 97.969 141.922 97.969C143.895 97.969 145.736 97.5748 147.419 96.7601C149.103 95.9718 150.523 94.7366 151.654 93.1073L154.995 95.3673C153.679 97.5222 151.891 99.1515 149.629 100.255C147.34 101.464 144.789 102.042 141.975 102.042Z" fill="#1E1E1E"/>
<path d="M177.273 102.042C174.037 102.042 171.144 101.306 168.619 99.861C166.094 98.4157 164.095 96.3922 162.622 93.8431C161.149 91.2678 160.413 88.377 160.413 85.1447C160.413 81.8335 161.149 78.8902 162.622 76.3674C164.095 73.8446 166.094 71.8737 168.619 70.4283C171.144 69.0093 174.037 68.2734 177.273 68.2734C180.561 68.2734 183.48 69.0093 186.032 70.4546C188.583 71.9 190.582 73.8709 192.029 76.3937C193.475 78.8902 194.212 81.8072 194.212 85.1447C194.212 88.4296 193.475 91.3466 192.029 93.8957C190.582 96.4448 188.557 98.442 186.005 99.8873C183.428 101.306 180.534 102.042 177.273 102.042ZM177.273 98.0478C179.666 98.0478 181.797 97.5222 183.664 96.4447C185.506 95.3673 186.978 93.8694 188.057 91.8984C189.135 89.9538 189.661 87.6938 189.661 85.1184C189.661 82.5168 189.135 80.2305 188.057 78.3121C186.978 76.3674 185.532 74.8695 183.664 73.7921C181.823 72.7146 179.693 72.189 177.352 72.189C174.984 72.189 172.88 72.7146 171.039 73.7921C169.198 74.8695 167.725 76.3674 166.62 78.3121C165.515 80.2568 164.989 82.5168 164.989 85.1184C164.989 87.6938 165.542 89.9538 166.62 91.8984C167.725 93.8431 169.171 95.3673 171.013 96.4447C172.828 97.5222 174.932 98.0478 177.273 98.0478Z" fill="#1E1E1E"/>
<path d="M244.794 68.2734C247.477 68.2734 249.844 68.799 251.843 69.8239C253.842 70.8488 255.394 72.4256 256.525 74.5279C257.629 76.6302 258.208 79.2844 258.208 82.4905V101.727H253.737V82.911C253.737 79.4158 252.895 76.7879 251.238 75.0009C249.581 73.2139 247.24 72.3204 244.189 72.3204C241.927 72.3204 239.954 72.7935 238.271 73.7395C236.613 74.6856 235.325 76.0521 234.43 77.8391C233.536 79.6261 233.063 81.781 233.063 84.3038V101.727H228.591V82.911C228.591 79.4158 227.749 76.7879 226.066 75.0009C224.383 73.2139 222.015 72.3204 218.99 72.3204C216.755 72.3204 214.808 72.7935 213.125 73.7395C211.442 74.6856 210.153 76.0521 209.232 77.8391C208.338 79.6261 207.864 81.781 207.864 84.3038V101.727H203.393V68.5888H207.68V77.55L206.996 75.9733C207.996 73.5818 209.627 71.6897 211.889 70.3232C214.151 68.9567 216.807 68.2734 219.885 68.2734C223.12 68.2734 225.882 69.0881 228.17 70.6911C230.432 72.3204 231.905 74.7381 232.589 77.9705L230.827 77.2872C231.8 74.6067 233.51 72.4256 235.982 70.7437C238.376 69.1144 241.348 68.2734 244.794 68.2734Z" fill="#1E1E1E"/>
<path d="M12.3761 156.256C10.6695 156.256 9.0908 155.979 7.64013 155.424C6.2108 154.848 4.9628 154.048 3.89613 153.024C2.8508 151.979 2.02947 150.763 1.43213 149.376C0.8348 147.989 0.536133 146.464 0.536133 144.8C0.536133 143.136 0.8348 141.611 1.43213 140.224C2.02947 138.837 2.86147 137.632 3.92813 136.608C4.9948 135.563 6.2428 134.763 7.67213 134.208C9.1228 133.632 10.7015 133.344 12.4081 133.344C14.1361 133.344 15.7255 133.643 17.1761 134.24C18.6481 134.816 19.8961 135.68 20.9201 136.832L18.8401 138.848C17.9868 137.952 17.0268 137.291 15.9601 136.864C14.8935 136.416 13.7521 136.192 12.5361 136.192C11.2775 136.192 10.1041 136.405 9.01613 136.832C7.94947 137.259 7.02147 137.856 6.23213 138.624C5.4428 139.392 4.82413 140.309 4.37613 141.376C3.94947 142.421 3.73613 143.563 3.73613 144.8C3.73613 146.037 3.94947 147.189 4.37613 148.256C4.82413 149.301 5.4428 150.208 6.23213 150.976C7.02147 151.744 7.94947 152.341 9.01613 152.768C10.1041 153.195 11.2775 153.408 12.5361 153.408C13.7521 153.408 14.8935 153.195 15.9601 152.768C17.0268 152.32 17.9868 151.637 18.8401 150.72L20.9201 152.736C19.8961 153.888 18.6481 154.763 17.1761 155.36C15.7255 155.957 14.1255 156.256 12.3761 156.256Z" fill="#1E1E1E"/>
<path d="M31.5824 156.192C29.8757 156.192 28.3611 155.819 27.0384 155.072C25.7157 154.325 24.6704 153.301 23.9024 152C23.1344 150.677 22.7504 149.184 22.7504 147.52C22.7504 145.835 23.1344 144.341 23.9024 143.04C24.6704 141.739 25.7157 140.725 27.0384 140C28.3611 139.253 29.8757 138.88 31.5824 138.88C33.2677 138.88 34.7717 139.253 36.0944 140C37.4384 140.725 38.4837 141.739 39.2304 143.04C39.9984 144.32 40.3824 145.813 40.3824 147.52C40.3824 149.205 39.9984 150.699 39.2304 152C38.4837 153.301 37.4384 154.325 36.0944 155.072C34.7717 155.819 33.2677 156.192 31.5824 156.192ZM31.5824 153.504C32.6704 153.504 33.6411 153.259 34.4944 152.768C35.3691 152.277 36.0517 151.584 36.5424 150.688C37.0331 149.771 37.2784 148.715 37.2784 147.52C37.2784 146.304 37.0331 145.259 36.5424 144.384C36.0517 143.488 35.3691 142.795 34.4944 142.304C33.6411 141.813 32.6704 141.568 31.5824 141.568C30.4944 141.568 29.5237 141.813 28.6704 142.304C27.817 142.795 27.1344 143.488 26.6224 144.384C26.1104 145.259 25.8544 146.304 25.8544 147.52C25.8544 148.715 26.1104 149.771 26.6224 150.688C27.1344 151.584 27.817 152.277 28.6704 152.768C29.5237 153.259 30.4944 153.504 31.5824 153.504Z" fill="#1E1E1E"/>
<path d="M53.6869 138.88C55.0735 138.88 56.2896 139.147 57.3349 139.68C58.4016 140.213 59.2335 141.024 59.8309 142.112C60.4282 143.2 60.7269 144.576 60.7269 146.24V156H57.6549V146.592C57.6549 144.949 57.2496 143.712 56.4389 142.88C55.6496 142.048 54.5296 141.632 53.0789 141.632C51.9909 141.632 51.0416 141.845 50.2309 142.272C49.4202 142.699 48.7909 143.328 48.3429 144.16C47.9162 144.992 47.7029 146.027 47.7029 147.264V156H44.6309V139.04H47.5749V143.616L47.0949 142.4C47.6495 141.291 48.5029 140.427 49.6549 139.808C50.8069 139.189 52.1509 138.88 53.6869 138.88Z" fill="#1E1E1E"/>
<path d="M75.4681 138.88C76.8548 138.88 78.0708 139.147 79.1161 139.68C80.1828 140.213 81.0148 141.024 81.6121 142.112C82.2095 143.2 82.5081 144.576 82.5081 146.24V156H79.4361V146.592C79.4361 144.949 79.0308 143.712 78.2201 142.88C77.4308 142.048 76.3108 141.632 74.8601 141.632C73.7721 141.632 72.8228 141.845 72.0121 142.272C71.2015 142.699 70.5721 143.328 70.1241 144.16C69.6975 144.992 69.4841 146.027 69.4841 147.264V156H66.4121V139.04H69.3561V143.616L68.8761 142.4C69.4308 141.291 70.2841 140.427 71.4361 139.808C72.5881 139.189 73.9321 138.88 75.4681 138.88Z" fill="#1E1E1E"/>
<path d="M95.7454 156.192C93.9321 156.192 92.332 155.819 90.9454 155.072C89.58 154.325 88.5134 153.301 87.7454 152C86.9987 150.699 86.6254 149.205 86.6254 147.52C86.6254 145.835 86.9881 144.341 87.7134 143.04C88.4601 141.739 89.4734 140.725 90.7534 140C92.0547 139.253 93.516 138.88 95.1374 138.88C96.78 138.88 98.2307 139.243 99.4894 139.968C100.748 140.693 101.729 141.717 102.433 143.04C103.159 144.341 103.521 145.867 103.521 147.616C103.521 147.744 103.511 147.893 103.489 148.064C103.489 148.235 103.479 148.395 103.457 148.544H89.0254V146.336H101.857L100.609 147.104C100.631 146.016 100.407 145.045 99.9374 144.192C99.4681 143.339 98.8174 142.677 97.9854 142.208C97.1747 141.717 96.2254 141.472 95.1374 141.472C94.0707 141.472 93.1214 141.717 92.2894 142.208C91.4574 142.677 90.8067 143.349 90.3374 144.224C89.868 145.077 89.6334 146.059 89.6334 147.168V147.68C89.6334 148.811 89.8894 149.824 90.4014 150.72C90.9347 151.595 91.6707 152.277 92.6094 152.768C93.548 153.259 94.6254 153.504 95.8414 153.504C96.8441 153.504 97.7507 153.333 98.5614 152.992C99.3934 152.651 100.119 152.139 100.737 151.456L102.433 153.44C101.665 154.336 100.705 155.019 99.5534 155.488C98.4227 155.957 97.1534 156.192 95.7454 156.192Z" fill="#1E1E1E"/>
<path d="M115.179 156.192C113.451 156.192 111.904 155.819 110.539 155.072C109.195 154.325 108.139 153.301 107.371 152C106.603 150.699 106.219 149.205 106.219 147.52C106.219 145.835 106.603 144.341 107.371 143.04C108.139 141.739 109.195 140.725 110.539 140C111.904 139.253 113.451 138.88 115.179 138.88C116.715 138.88 118.08 139.189 119.275 139.808C120.491 140.405 121.43 141.301 122.091 142.496L119.755 144C119.2 143.168 118.518 142.56 117.707 142.176C116.918 141.771 116.064 141.568 115.147 141.568C114.038 141.568 113.046 141.813 112.171 142.304C111.296 142.795 110.603 143.488 110.091 144.384C109.579 145.259 109.323 146.304 109.323 147.52C109.323 148.736 109.579 149.792 110.091 150.688C110.603 151.584 111.296 152.277 112.171 152.768C113.046 153.259 114.038 153.504 115.147 153.504C116.064 153.504 116.918 153.312 117.707 152.928C118.518 152.523 119.2 151.904 119.755 151.072L122.091 152.544C121.43 153.717 120.491 154.624 119.275 155.264C118.08 155.883 116.715 156.192 115.179 156.192Z" fill="#1E1E1E"/>
<path d="M132.111 156.192C130.404 156.192 129.082 155.733 128.143 154.816C127.204 153.899 126.735 152.587 126.735 150.88V135.328H129.807V150.752C129.807 151.669 130.031 152.373 130.479 152.864C130.948 153.355 131.61 153.6 132.463 153.6C133.423 153.6 134.223 153.333 134.863 152.8L135.823 155.008C135.354 155.413 134.788 155.712 134.127 155.904C133.487 156.096 132.815 156.192 132.111 156.192ZM123.855 141.568V139.04H134.671V141.568H123.855Z" fill="#1E1E1E"/>
<path d="M146.527 156.192C144.713 156.192 143.113 155.819 141.727 155.072C140.361 154.325 139.295 153.301 138.527 152C137.78 150.699 137.407 149.205 137.407 147.52C137.407 145.835 137.769 144.341 138.495 143.04C139.241 141.739 140.255 140.725 141.535 140C142.836 139.253 144.297 138.88 145.919 138.88C147.561 138.88 149.012 139.243 150.271 139.968C151.529 140.693 152.511 141.717 153.215 143.04C153.94 144.341 154.303 145.867 154.303 147.616C154.303 147.744 154.292 147.893 154.271 148.064C154.271 148.235 154.26 148.395 154.239 148.544H139.807V146.336H152.639L151.391 147.104C151.412 146.016 151.188 145.045 150.719 144.192C150.249 143.339 149.599 142.677 148.767 142.208C147.956 141.717 147.007 141.472 145.919 141.472C144.852 141.472 143.903 141.717 143.071 142.208C142.239 142.677 141.588 143.349 141.119 144.224C140.649 145.077 140.415 146.059 140.415 147.168V147.68C140.415 148.811 140.671 149.824 141.183 150.72C141.716 151.595 142.452 152.277 143.391 152.768C144.329 153.259 145.407 153.504 146.623 153.504C147.625 153.504 148.532 153.333 149.343 152.992C150.175 152.651 150.9 152.139 151.519 151.456L153.215 153.44C152.447 154.336 151.487 155.019 150.335 155.488C149.204 155.957 147.935 156.192 146.527 156.192Z" fill="#1E1E1E"/>
<path d="M158.568 156V139.04H161.512V143.648L161.224 142.496C161.694 141.323 162.483 140.427 163.592 139.808C164.702 139.189 166.067 138.88 167.688 138.88V141.856C167.56 141.835 167.432 141.824 167.304 141.824C167.198 141.824 167.091 141.824 166.984 141.824C165.342 141.824 164.04 142.315 163.08 143.296C162.12 144.277 161.64 145.696 161.64 147.552V156H158.568Z" fill="#1E1E1E"/>
<path d="M180.287 156V132.256H183.359V156H180.287Z" fill="#1E1E1E"/>
<path d="M196.777 156.192C194.963 156.192 193.363 155.819 191.977 155.072C190.611 154.325 189.545 153.301 188.777 152C188.03 150.699 187.657 149.205 187.657 147.52C187.657 145.835 188.019 144.341 188.745 143.04C189.491 141.739 190.505 140.725 191.785 140C193.086 139.253 194.547 138.88 196.169 138.88C197.811 138.88 199.262 139.243 200.521 139.968C201.779 140.693 202.761 141.717 203.465 143.04C204.19 144.341 204.553 145.867 204.553 147.616C204.553 147.744 204.542 147.893 204.521 148.064C204.521 148.235 204.51 148.395 204.489 148.544H190.057V146.336H202.889L201.641 147.104C201.662 146.016 201.438 145.045 200.969 144.192C200.499 143.339 199.849 142.677 199.017 142.208C198.206 141.717 197.257 141.472 196.169 141.472C195.102 141.472 194.153 141.717 193.321 142.208C192.489 142.677 191.838 143.349 191.369 144.224C190.899 145.077 190.665 146.059 190.665 147.168V147.68C190.665 148.811 190.921 149.824 191.433 150.72C191.966 151.595 192.702 152.277 193.641 152.768C194.579 153.259 195.657 153.504 196.873 153.504C197.875 153.504 198.782 153.333 199.593 152.992C200.425 152.651 201.15 152.139 201.769 151.456L203.465 153.44C202.697 154.336 201.737 155.019 200.585 155.488C199.454 155.957 198.185 156.192 196.777 156.192Z" fill="#1E1E1E"/>
<path d="M213.682 156.192C212.274 156.192 210.93 156 209.65 155.616C208.392 155.232 207.4 154.763 206.674 154.208L207.954 151.776C208.68 152.267 209.576 152.683 210.642 153.024C211.709 153.365 212.797 153.536 213.906 153.536C215.336 153.536 216.36 153.333 216.978 152.928C217.618 152.523 217.938 151.957 217.938 151.232C217.938 150.699 217.746 150.283 217.362 149.984C216.978 149.685 216.466 149.461 215.826 149.312C215.208 149.163 214.514 149.035 213.746 148.928C212.978 148.8 212.21 148.651 211.442 148.48C210.674 148.288 209.97 148.032 209.33 147.712C208.69 147.371 208.178 146.912 207.794 146.336C207.41 145.739 207.218 144.949 207.218 143.968C207.218 142.944 207.506 142.048 208.082 141.28C208.658 140.512 209.469 139.925 210.514 139.52C211.581 139.093 212.84 138.88 214.29 138.88C215.4 138.88 216.52 139.019 217.65 139.296C218.802 139.552 219.741 139.925 220.466 140.416L219.154 142.848C218.386 142.336 217.586 141.984 216.754 141.792C215.922 141.6 215.09 141.504 214.258 141.504C212.914 141.504 211.912 141.728 211.25 142.176C210.589 142.603 210.258 143.157 210.258 143.84C210.258 144.416 210.45 144.864 210.834 145.184C211.24 145.483 211.752 145.717 212.37 145.888C213.01 146.059 213.714 146.208 214.482 146.336C215.25 146.443 216.018 146.592 216.786 146.784C217.554 146.955 218.248 147.2 218.866 147.52C219.506 147.84 220.018 148.288 220.402 148.864C220.808 149.44 221.01 150.208 221.01 151.168C221.01 152.192 220.712 153.077 220.114 153.824C219.517 154.571 218.674 155.157 217.586 155.584C216.498 155.989 215.197 156.192 213.682 156.192Z" fill="#1E1E1E"/>
<path d="M240.867 162.4C239.31 162.4 237.795 162.176 236.323 161.728C234.873 161.301 233.689 160.683 232.771 159.872L234.243 157.504C235.033 158.187 236.003 158.72 237.155 159.104C238.307 159.509 239.513 159.712 240.771 159.712C242.777 159.712 244.249 159.243 245.187 158.304C246.126 157.365 246.595 155.936 246.595 154.016V150.432L246.915 147.072L246.755 143.68V139.04H249.667V153.696C249.667 156.683 248.921 158.88 247.427 160.288C245.934 161.696 243.747 162.4 240.867 162.4ZM240.483 155.296C238.841 155.296 237.369 154.955 236.067 154.272C234.787 153.568 233.763 152.597 232.995 151.36C232.249 150.123 231.875 148.693 231.875 147.072C231.875 145.429 232.249 144 232.995 142.784C233.763 141.547 234.787 140.587 236.067 139.904C237.369 139.221 238.841 138.88 240.483 138.88C241.934 138.88 243.257 139.179 244.451 139.776C245.646 140.352 246.595 141.248 247.299 142.464C248.025 143.68 248.387 145.216 248.387 147.072C248.387 148.907 248.025 150.432 247.299 151.648C246.595 152.864 245.646 153.781 244.451 154.4C243.257 154.997 241.934 155.296 240.483 155.296ZM240.835 152.608C241.966 152.608 242.969 152.373 243.843 151.904C244.718 151.435 245.401 150.784 245.891 149.952C246.403 149.12 246.659 148.16 246.659 147.072C246.659 145.984 246.403 145.024 245.891 144.192C245.401 143.36 244.718 142.72 243.843 142.272C242.969 141.803 241.966 141.568 240.835 141.568C239.705 141.568 238.691 141.803 237.795 142.272C236.921 142.72 236.227 143.36 235.715 144.192C235.225 145.024 234.979 145.984 234.979 147.072C234.979 148.16 235.225 149.12 235.715 149.952C236.227 150.784 236.921 151.435 237.795 151.904C238.691 152.373 239.705 152.608 240.835 152.608Z" fill="#1E1E1E"/>
<path d="M263.089 156.192C261.276 156.192 259.676 155.819 258.289 155.072C256.924 154.325 255.857 153.301 255.089 152C254.342 150.699 253.969 149.205 253.969 147.52C253.969 145.835 254.332 144.341 255.057 143.04C255.804 141.739 256.817 140.725 258.097 140C259.398 139.253 260.86 138.88 262.481 138.88C264.124 138.88 265.574 139.243 266.833 139.968C268.092 140.693 269.073 141.717 269.777 143.04C270.502 144.341 270.865 145.867 270.865 147.616C270.865 147.744 270.854 147.893 270.833 148.064C270.833 148.235 270.822 148.395 270.801 148.544H256.369V146.336H269.201L267.953 147.104C267.974 146.016 267.75 145.045 267.281 144.192C266.812 143.339 266.161 142.677 265.329 142.208C264.518 141.717 263.569 141.472 262.481 141.472C261.414 141.472 260.465 141.717 259.633 142.208C258.801 142.677 258.15 143.349 257.681 144.224C257.212 145.077 256.977 146.059 256.977 147.168V147.68C256.977 148.811 257.233 149.824 257.745 150.72C258.278 151.595 259.014 152.277 259.953 152.768C260.892 153.259 261.969 153.504 263.185 153.504C264.188 153.504 265.094 153.333 265.905 152.992C266.737 152.651 267.462 152.139 268.081 151.456L269.777 153.44C269.009 154.336 268.049 155.019 266.897 155.488C265.766 155.957 264.497 156.192 263.089 156.192Z" fill="#1E1E1E"/>
<path d="M284.187 138.88C285.574 138.88 286.79 139.147 287.835 139.68C288.902 140.213 289.734 141.024 290.331 142.112C290.928 143.2 291.227 144.576 291.227 146.24V156H288.155V146.592C288.155 144.949 287.75 143.712 286.939 142.88C286.15 142.048 285.03 141.632 283.579 141.632C282.491 141.632 281.542 141.845 280.731 142.272C279.92 142.699 279.291 143.328 278.843 144.16C278.416 144.992 278.203 146.027 278.203 147.264V156H275.131V139.04H278.075V143.616L277.595 142.4C278.15 141.291 279.003 140.427 280.155 139.808C281.307 139.189 282.651 138.88 284.187 138.88Z" fill="#1E1E1E"/>
<path d="M301.776 156.192C300.368 156.192 299.024 156 297.744 155.616C296.485 155.232 295.493 154.763 294.768 154.208L296.048 151.776C296.773 152.267 297.669 152.683 298.736 153.024C299.803 153.365 300.891 153.536 302 153.536C303.429 153.536 304.453 153.333 305.072 152.928C305.712 152.523 306.032 151.957 306.032 151.232C306.032 150.699 305.84 150.283 305.456 149.984C305.072 149.685 304.56 149.461 303.92 149.312C303.301 149.163 302.608 149.035 301.84 148.928C301.072 148.8 300.304 148.651 299.536 148.48C298.768 148.288 298.064 148.032 297.424 147.712C296.784 147.371 296.272 146.912 295.888 146.336C295.504 145.739 295.312 144.949 295.312 143.968C295.312 142.944 295.6 142.048 296.176 141.28C296.752 140.512 297.563 139.925 298.608 139.52C299.675 139.093 300.933 138.88 302.384 138.88C303.493 138.88 304.613 139.019 305.744 139.296C306.896 139.552 307.835 139.925 308.56 140.416L307.248 142.848C306.48 142.336 305.68 141.984 304.848 141.792C304.016 141.6 303.184 141.504 302.352 141.504C301.008 141.504 300.005 141.728 299.344 142.176C298.683 142.603 298.352 143.157 298.352 143.84C298.352 144.416 298.544 144.864 298.928 145.184C299.333 145.483 299.845 145.717 300.464 145.888C301.104 146.059 301.808 146.208 302.576 146.336C303.344 146.443 304.112 146.592 304.88 146.784C305.648 146.955 306.341 147.2 306.96 147.52C307.6 147.84 308.112 148.288 308.496 148.864C308.901 149.44 309.104 150.208 309.104 151.168C309.104 152.192 308.805 153.077 308.208 153.824C307.611 154.571 306.768 155.157 305.68 155.584C304.592 155.989 303.291 156.192 301.776 156.192Z" fill="#1E1E1E"/>
</svg>
